<?xml version="1.0" encoding="utf-8"?>
<!-- Generator: Adobe Illustrator 20.1.0, SVG Export Plug-In . SVG Version: 6.00 Build 0)  -->
<svg version="1.1" id="_x31_" xmlns="http://www.w3.org/2000/svg" xmlns:xlink="http://www.w3.org/1999/xlink" x="0px" y="0px"
	 viewBox="0 0 120.4 19.8" style="enable-background:new 0 0 120.4 19.8;" xml:space="preserve">
<style type="text/css">
	.st0{fill:#252525;}
</style>
<g>
	<path class="st0" d="M0,9.7c0-1.4,1.2-2.6,2.6-2.6s2.6,1.2,2.6,2.6S4,12.3,2.6,12.3S0,11.1,0,9.7"/>
	<path class="st0" d="M0,16.7c0-1.4,1.2-2.6,2.6-2.6s2.6,1.2,2.6,2.6S4,19.3,2.6,19.3S0,18.1,0,16.7"/>
	<path class="st0" d="M7.5,2.7c0-1.4,1.2-2.6,2.6-2.6s2.6,1.2,2.6,2.6s-1.2,2.6-2.6,2.6C8.6,5.3,7.5,4.2,7.5,2.7"/>
	<path class="st0" d="M7.5,9.7c0-1.4,1.2-2.6,2.6-2.6s2.6,1.2,2.6,2.6s-1.2,2.6-2.6,2.6C8.6,12.3,7.5,11.1,7.5,9.7"/>
	<path class="st0" d="M7.5,16.7c0-1.4,1.2-2.6,2.6-2.6s2.6,1.2,2.6,2.6s-1.2,2.6-2.6,2.6C8.6,19.3,7.5,18.1,7.5,16.7"/>
	<path class="st0" d="M14.9,2.7c0-1.4,1.2-2.6,2.6-2.6s2.6,1.2,2.6,2.6s-1.2,2.6-2.6,2.6C16.1,5.3,14.9,4.2,14.9,2.7"/>
	<path class="st0" d="M14.9,9.7c0-1.4,1.2-2.6,2.6-2.6s2.6,1.2,2.6,2.6s-1.2,2.6-2.6,2.6C16.1,12.3,14.9,11.1,14.9,9.7"/>
	<path class="st0" d="M14.9,16.7c0-1.4,1.2-2.6,2.6-2.6s2.6,1.2,2.6,2.6s-1.2,2.6-2.6,2.6C16.1,19.3,14.9,18.1,14.9,16.7"/>
	<path class="st0" d="M5.2,2.7c0-1.4-1.2-2.6-2.6-2.6S0,1.3,0,2.7s1.2,2.6,2.6,2.6C4.1,5.3,5.2,4.2,5.2,2.7"/>
</g>
<path class="st0" d="M102.2,6.9c1.2,0,1.8,1,2,2.9l0.3,0.1c1.6,0,2.6-0.9,2.6-2.2c0-1.5-1.3-2.6-4.3-2.6c-4.8,0-7.7,3.2-7.7,7.8
	c0,4.4,2.3,6.9,6.4,6.9c2.5,0,4.5-0.9,5.6-2.2l-0.5-1.7c-0.9,0.5-2.1,0.9-3.5,0.9c-2.2,0-3.7-1.5-3.7-5
	C99.4,8.5,100.6,6.9,102.2,6.9z"/>
<path class="st0" d="M75.9,15.8v-5.7c0-3.5-1.9-5.2-5.5-5.2c-2.5,0-4.5,0.8-5.8,1.8l0.5,2.2c1-0.6,2.4-1.1,3.8-1.1
	c2,0,2.8,0.7,2.8,2.7V11l-2.3,0.1c-3.8,0.2-5.7,1.8-5.7,4.6c0,2.1,1.3,3.7,3.6,3.7c2.2,0,3.6-1.3,4.6-3v0.3c0,1.7,0.7,2.7,2.8,2.7
	c1.6,0,2.8-0.8,3.3-1.7l0.1-0.3C76.5,17.6,75.9,17.1,75.9,15.8z M71.7,16.2c-0.5,0.5-1.3,0.8-2.1,0.8c-1.2,0-1.8-0.6-1.8-1.9
	c0-1.4,0.6-2.1,2.3-2.4l1.6-0.3V16.2z"/>
<path class="st0" d="M93.6,10c0-3.4-1.3-5.1-4.3-5.1c-2.3,0-4.1,1.3-5.3,3l0.3-3.4l-6.2,2l0.5,0.3l1.5,1.3v9.2l-1.8,0.5V19H86v-1.2
	l-1.8-0.5V8.2c0.7-0.5,1.6-0.9,2.5-0.9c1.8,0,2.5,0.8,2.5,3.5v6.5l-1.7,0.5V19h7.7v-1.2l-1.7-0.5L93.6,10z"/>
<path class="st0" d="M115.8,16.7c-2.6,0-3.9-1.3-4-4.4h8.4C121,8,119.6,5,115,5c-4.7,0-7.5,3-7.5,7.9c0,4.2,2.4,6.7,6.5,6.7
	c2.8,0,5-1,6.2-2.5l-0.5-1.7C118.8,16.2,117.5,16.7,115.8,16.7z M114.5,6.7c1.4,0,2,1,1.8,4l-4.5,1C111.8,8.3,112.9,6.7,114.5,6.7z"
	/>
<polygon class="st0" points="43.7,8.1 43.9,4.9 37.5,6.9 37.4,7.3 39.4,8.6 39.4,17.5 37.7,18 37.7,19.2 45.4,19.2 45.4,18 
	43.7,17.5 "/>
<path class="st0" d="M61.7,10c0-3.4-1.3-5.1-4.3-5.1c-2.3,0-4.1,1.3-5.3,3l0.3-3.4l-6.2,2l-0.1,0.3l2,1.3v9.2l-1.8,0.5V19H54v-1.2
	l-1.8-0.5V8.2c0.7-0.5,1.6-0.9,2.5-0.9c1.8,0,2.5,0.8,2.5,3.5v6.5l-1.7,0.5V19h7.7v-1.2l-1.7-0.5L61.7,10z"/>
<path class="st0" d="M32.3,2C35,2,35.2,2.3,36,5.4l1.5-0.3L37.3,0l-3.5,0.3H23.6v1.3l2,0.5v15.4l-2,0.5v1.3h8.8V18l-2.5-0.5v-6.6
	h1.9c1.5,0,1.6,0.4,1.9,2.1h1.4V7.1h-1.4c-0.3,1.7-0.4,2.1-1.9,2.1h-1.9V2H32.3z"/>
<path class="st0" d="M41.4,4.6c1.2,0,2.2-0.9,2.2-2.2c0-1.2-1-2.2-2.2-2.2c-1.3,0-2.2,1-2.2,2.2C39.2,3.7,40.2,4.6,41.4,4.6z"/>
</svg>
