<svg id="Layer_1" data-name="Layer 1" xmlns="http://www.w3.org/2000/svg" viewBox="0 0 1344.02 211.98">
  <defs>
    <style>
      .cls-1 {
        fill: #1e05c7;
        stroke-width: 0px;
      }
    </style>
  </defs>
  <g>
    <path class="cls-1" d="m394.45,84.14h-109.95v-32.81h109.95v32.81Zm22.9-79.7h-157.58c-10.97,0-22.31,8.67-22.31,23.18v77.35c0,16.63,11.39,24.08,22.68,24.08l22.39.21h111.92v31.68h-133.64c-.17,0-.3.02-.46.03-12.86.14-23.25,10.56-23.25,23.41,0,12.03,9.17,23.41,20.79,23.43,0,.06,0-.06.01,0h159.44c22.97,0,24.13-20.04,24.13-24.05V28.94c0-16.84-12.51-24.51-24.13-24.51Z"/>
    <path class="cls-1" d="m0,106.21c0-15.3,12.44-27.69,27.78-27.69h0c15.35,0,27.78,12.4,27.78,27.69h0c0,15.3-12.44,27.69-27.78,27.69h0c-15.35,0-27.78-12.4-27.78-27.69h0Z"/>
    <path class="cls-1" d="m0,180.24c0-15.3,12.44-27.69,27.78-27.7h0c15.35,0,27.78,12.4,27.78,27.7h0c0,15.29-12.44,27.69-27.78,27.69h0C12.44,207.93,0,195.53,0,180.24H0Z"/>
    <path class="cls-1" d="m79.3,32.19c0-15.3,12.44-27.69,27.78-27.7h0c15.35,0,27.78,12.4,27.78,27.7h0c0,15.3-12.44,27.69-27.78,27.69h0c-15.35,0-27.78-12.4-27.78-27.69h0Z"/>
    <path class="cls-1" d="m79.3,106.21c0-15.3,12.44-27.69,27.78-27.69h0c15.35,0,27.78,12.4,27.78,27.69h0c0,15.3-12.44,27.69-27.78,27.69h0c-15.35,0-27.78-12.4-27.78-27.69h0Z"/>
    <path class="cls-1" d="m79.3,180.24c0-15.3,12.44-27.69,27.78-27.7h0c15.35,0,27.78,12.4,27.79,27.7h0c0,15.29-12.44,27.69-27.79,27.69h0c-15.35,0-27.78-12.4-27.78-27.69h0Z"/>
    <path class="cls-1" d="m158.6,32.19c0-15.3,12.44-27.69,27.79-27.69h0c15.35,0,27.78,12.4,27.78,27.69h0c0,15.3-12.44,27.69-27.78,27.69h0c-15.35,0-27.78-12.4-27.79-27.69h0Z"/>
    <path class="cls-1" d="m158.6,106.21c0-15.3,12.44-27.69,27.78-27.69h0c15.35,0,27.78,12.4,27.79,27.69h0c0,15.3-12.44,27.69-27.79,27.69h0c-15.35,0-27.78-12.4-27.78-27.69h0Z"/>
    <path class="cls-1" d="m158.6,180.24c0-15.3,12.44-27.69,27.78-27.7h0c15.35,0,27.78,12.4,27.78,27.7h0c0,15.29-12.44,27.69-27.78,27.69h0c-15.35,0-27.78-12.4-27.78-27.69h0Z"/>
    <path class="cls-1" d="m55.57,32.19c0-15.3-12.44-27.69-27.78-27.7C12.44,4.49,0,16.89,0,32.19c0,15.3,12.44,27.69,27.78,27.69,15.35,0,27.78-12.4,27.78-27.69Z"/>
  </g>
  <g>
    <path class="cls-1" d="m486.01,4.33h61.43l76.72,135.26-.87-135.26h46.43v203.33h-55.37l-81.33-145.36v145.36h-47.01V4.33Z"/>
    <path class="cls-1" d="m700.27,4.33h147.38v37.49h-100.08v44.41h91.14v36.63h-91.14v47.01h100.08v37.78h-147.38V4.33Z"/>
    <path class="cls-1" d="m861.38,4.33h50.47l39.51,153.14L988.85,4.33h49.9l37.49,153.14,39.8-153.14h50.47l-57.39,203.33h-60.57l-34.61-145.07-35.18,145.07h-60.28L861.38,4.33Z"/>
    <path class="cls-1" d="m1165.2,143.34h47.87c1.73,17.02,12.69,33.74,42.11,33.74,26.82,0,38.07-12.4,38.07-24.8s-6.63-21.05-30.57-25.09l-26.53-4.32c-45.28-7.5-63.45-27.4-63.45-61.43S1203.27,0,1252.59,0c55.08,0,82.2,30.28,85.95,65.18h-47.88c-2.88-16.44-13.55-30.28-38.36-30.28-23.36,0-32.59,12.11-32.59,22.78,0,12.98,7.21,19.03,31.15,23.07l24.23,3.75c44.41,7.21,68.93,27.69,68.93,63.45,0,38.65-32.59,64.02-88.25,64.02s-87.96-28.55-90.56-68.64Z"/>
    <path class="cls-1" d="m486.01,4.33h61.43l76.72,135.26-.87-135.26h46.43v203.33h-55.37l-81.33-145.36v145.36h-47.01V4.33Z"/>
    <path class="cls-1" d="m700.27,4.33h147.38v37.49h-100.08v44.41h91.14v36.63h-91.14v47.01h100.08v37.78h-147.38V4.33Z"/>
    <path class="cls-1" d="m861.38,4.33h50.47l39.51,153.14L988.85,4.33h49.9l37.49,153.14,39.8-153.14h50.47l-57.39,203.33h-60.57l-34.61-145.07-35.18,145.07h-60.28L861.38,4.33Z"/>
    <path class="cls-1" d="m1165.2,143.34h47.87c1.73,17.02,12.69,33.74,42.11,33.74,26.82,0,38.07-12.4,38.07-24.8s-6.63-21.05-30.57-25.09l-26.53-4.32c-45.28-7.5-63.45-27.4-63.45-61.43S1203.27,0,1252.59,0c55.08,0,82.2,30.28,85.95,65.18h-47.88c-2.88-16.44-13.55-30.28-38.36-30.28-23.36,0-32.59,12.11-32.59,22.78,0,12.98,7.21,19.03,31.15,23.07l24.23,3.75c44.41,7.21,68.93,27.69,68.93,63.45,0,38.65-32.59,64.02-88.25,64.02s-87.96-28.55-90.56-68.64Z"/>
  </g>
</svg>
