<?xml version="1.0" encoding="utf-8"?>
<!-- Generator: Adobe Illustrator 19.0.0, SVG Export Plug-In . SVG Version: 6.00 Build 0)  -->
<svg version="1.1" id="Layer_1" xmlns="http://www.w3.org/2000/svg" xmlns:xlink="http://www.w3.org/1999/xlink" x="0px" y="0px"
	 width="10px" height="17px" viewBox="-300 388 10 17" style="enable-background:new -300 388 10 17;" xml:space="preserve">
<style type="text/css">
	.st0{fill:#FFFFFF;}
</style>
<title>Fill 1</title>
<desc>Created with Sketch.</desc>
<g id="Gleme">
	<g id="_x39_News-Desktop-Gleme" transform="translate(-1200.000000, -521.000000)">
		<g id="VIDEO-PLAYER" transform="translate(532.000000, 296.000000)">
			<g id="Arrow-button" transform="translate(653.000000, 213.000000)">
				<path id="Fill-1" class="st0" d="M-285,408.4L-285,408.4c0-0.4,0.1-0.7,0.4-1l7-7c0.5-0.5,1.4-0.5,1.9,0c0.5,0.5,0.5,1.4,0,1.9
					l-6,6l6,6c0.5,0.5,0.5,1.4,0,1.9c-0.5,0.5-1.4,0.5-1.9,0l-7-7C-284.9,409.1-285,408.8-285,408.4L-285,408.4z"/>
			</g>
		</g>
	</g>
</g>
</svg>
