<svg width="204" height="32" viewBox="0 0 204 32" fill="none" xmlns="http://www.w3.org/2000/svg">
<path d="M59.5916 12.7014H42.9813V7.74823H59.5916V12.7014ZM63.0512 0.669494H39.2452C37.588 0.669494 35.8748 1.97836 35.8748 4.16886V15.846C35.8748 18.3565 37.5955 19.4812 39.3011 19.4812L42.6836 19.5129H59.5916V24.2955H39.4024C39.3767 24.2955 39.357 24.2985 39.3329 24.3C37.3901 24.3211 35.8204 25.8942 35.8204 27.8341C35.8204 29.6502 37.2058 31.3682 38.9612 31.3712C38.9612 31.3803 38.9612 31.3621 38.9627 31.3712H63.0497C66.5198 31.3712 66.6951 28.3459 66.6951 27.7405V4.36813C66.6951 1.82588 64.8051 0.667984 63.0497 0.667984L63.0512 0.669494Z" fill="#969696"/>
<path d="M0 16.034C0 13.7242 1.87934 11.8538 4.19679 11.8538C6.51574 11.8538 8.39357 13.7258 8.39357 16.034C8.39357 18.3438 6.51423 20.2142 4.19679 20.2142C1.87783 20.2142 0 18.3423 0 16.034Z" fill="#969696"/>
<path d="M0 27.2084C0 24.8986 1.87934 23.0282 4.19679 23.0267C6.51574 23.0267 8.39357 24.8986 8.39357 27.2084C8.39357 29.5166 6.51423 31.3886 4.19679 31.3886C1.87934 31.3886 0 29.5166 0 27.2084Z" fill="#969696"/>
<path d="M11.979 4.85833C11.979 2.54857 13.8583 0.678115 16.1758 0.676605C18.4947 0.676605 20.3726 2.54857 20.3726 4.85833C20.3726 7.16809 18.4932 9.03854 16.1758 9.03854C13.8568 9.03854 11.979 7.16658 11.979 4.85833Z" fill="#969696"/>
<path d="M11.979 16.034C11.979 13.7242 13.8583 11.8538 16.1758 11.8538C18.4947 11.8538 20.3726 13.7258 20.3726 16.034C20.3726 18.3438 18.4932 20.2142 16.1758 20.2142C13.8568 20.2142 11.979 18.3423 11.979 16.034Z" fill="#969696"/>
<path d="M11.979 27.2084C11.979 24.8986 13.8583 23.0282 16.1758 23.0267C18.4947 23.0267 20.3726 24.8986 20.3741 27.2084C20.3741 29.5166 18.4947 31.3886 16.1758 31.3886C13.8568 31.3886 11.979 29.5166 11.979 27.2084Z" fill="#969696"/>
<path d="M23.9579 4.85897C23.9579 2.54921 25.8372 0.678757 28.1562 0.678757C30.4751 0.678757 32.353 2.55072 32.353 4.85897C32.353 7.16873 30.4736 9.03919 28.1562 9.03919C25.8372 9.03919 23.9594 7.16722 23.9579 4.85897Z" fill="#969696"/>
<path d="M23.9579 16.034C23.9579 13.7242 25.8372 11.8538 28.1547 11.8538C30.4736 11.8538 32.3515 13.7258 32.353 16.034C32.353 18.3438 30.4736 20.2142 28.1547 20.2142C25.8357 20.2142 23.9579 18.3423 23.9579 16.034Z" fill="#969696"/>
<path d="M23.9579 27.2084C23.9579 24.8986 25.8372 23.0282 28.1547 23.0267C30.4736 23.0267 32.3515 24.8986 32.3515 27.2084C32.3515 29.5166 30.4721 31.3886 28.1547 31.3886C25.8357 31.3886 23.9579 29.5166 23.9579 27.2084Z" fill="#969696"/>
<path d="M8.39508 4.85833C8.39508 2.54857 6.51574 0.678115 4.1983 0.676605C1.87934 0.676605 0 2.54857 0 4.85833C0 7.16809 1.87934 9.03854 4.19679 9.03854C6.51574 9.03854 8.39357 7.16658 8.39357 4.85833H8.39508Z" fill="#969696"/>
<path d="M73.4261 0.653046H82.7065L94.2968 21.0725L94.1653 0.653046H101.18V31.3487H92.8147L80.5281 9.40447V31.3487H73.4261V0.653046Z" fill="#969696"/>
<path d="M105.794 0.653046H128.059V6.31271H112.94V13.0171H126.708V18.5469H112.94V25.6438H128.059V31.3472H105.794V0.653046Z" fill="#969696"/>
<path d="M130.135 0.653046H137.76L143.729 23.7718L149.393 0.653046H156.931L162.595 23.7718L168.607 0.653046H176.232L167.562 31.3487H158.412L153.183 9.44825L147.868 31.3487H138.762L130.135 0.653046Z" fill="#969696"/>
<path d="M176.034 21.6393H183.266C183.527 24.2087 185.183 26.7328 189.627 26.7328C193.679 26.7328 195.379 24.8609 195.379 22.9889C195.379 21.1169 194.377 19.8111 190.76 19.2012L186.752 18.549C179.912 17.4168 177.167 14.4126 177.167 9.27527C177.167 4.13794 181.785 0 189.236 0C197.557 0 201.654 4.57121 202.221 9.83988H194.987C194.552 7.35802 192.94 5.26867 189.192 5.26867C185.663 5.26867 184.269 7.09685 184.269 8.70765C184.269 10.6672 185.358 11.5805 188.975 12.1904L192.635 12.7565C199.344 13.845 203.049 16.9367 203.049 22.3352C203.049 28.17 198.125 32 189.716 32C181.308 32 176.428 27.69 176.035 21.6378L176.034 21.6393Z" fill="#969696"/>
<path d="M73.4261 0.653046H82.7065L94.2968 21.0725L94.1653 0.653046H101.18V31.3487H92.8147L80.5281 9.40447V31.3487H73.4261V0.653046Z" fill="#969696"/>
<path d="M105.794 0.653046H128.059V6.31271H112.94V13.0171H126.708V18.5469H112.94V25.6438H128.059V31.3472H105.794V0.653046Z" fill="#969696"/>
<path d="M130.135 0.653046H137.76L143.729 23.7718L149.393 0.653046H156.931L162.595 23.7718L168.607 0.653046H176.232L167.562 31.3487H158.412L153.183 9.44825L147.868 31.3487H138.762L130.135 0.653046Z" fill="#969696"/>
<path d="M176.034 21.6393H183.266C183.527 24.2087 185.183 26.7328 189.627 26.7328C193.679 26.7328 195.379 24.8609 195.379 22.9889C195.379 21.1169 194.377 19.8111 190.76 19.2012L186.752 18.549C179.912 17.4168 177.167 14.4126 177.167 9.27527C177.167 4.13794 181.785 0 189.236 0C197.557 0 201.654 4.57121 202.221 9.83988H194.987C194.552 7.35802 192.94 5.26867 189.192 5.26867C185.663 5.26867 184.269 7.09685 184.269 8.70765C184.269 10.6672 185.358 11.5805 188.975 12.1904L192.635 12.7565C199.344 13.845 203.049 16.9367 203.049 22.3352C203.049 28.17 198.125 32 189.716 32C181.308 32 176.428 27.69 176.035 21.6378L176.034 21.6393Z" fill="#969696"/>
</svg>
