<svg data-name="Layer 1" xmlns="http://www.w3.org/2000/svg" width="296" height="45" viewBox="0 0 295.6183 44.745"><title>Network_Logos_Finals</title><g data-name="&amp;lt;Group&amp;gt;" fill="#d42128"><path data-name="&amp;lt;Compound Path&amp;gt;" d="M128.786 21.91c-3.195 0-4.692.967-4.692 3.26 0 1.808 1.295 2.706 3.841 2.706h8.093c6.475 0 9.267 1.841 9.267 7.047 0 5.24-3.28 7.46-10.155 7.46h-16.267V37.94h15.298c3.233 0 4.733-.66 4.733-2.81 0-2.222-1.38-2.881-4.332-2.881h-7.202c-6.635 0-9.671-2.152-9.671-7.149 0-5.412 3.279-7.638 10.196-7.638h15.982v4.446h-15.091zm33.802-4.447c3.965 0 6.755.277 8.535 1.25a7.436 7.436 0 0 1 4.009 6.874 6.994 6.994 0 0 1-3.358 6.489c-2.472 1.494-5.304 1.597-8.94 1.597h-7.41v8.71h-6.108v-24.92h13.272zm-7.164 4.446v7.356h7.446c3.683 0 5.46-1.181 5.46-3.678 0-2.775-1.777-3.678-5.825-3.678h-7.08zm37.547-4.929c9.876 0 14.486 4.128 14.486 12.944s-4.61 12.982-14.486 12.982c-9.99 0-14.483-4.165-14.483-13.226 0-8.572 4.733-12.7 14.483-12.7zm-7.807 12.737c0 6.073 2.348 8.884 7.807 8.884 5.384 0 7.848-2.81 7.848-8.676s-2.464-8.677-7.848-8.677c-5.258 0-7.807 2.81-7.807 8.47zm42.193-12.254c6.874 0 10.152 2.256 10.152 7.496 0 3.855-2.104 6.32-5.866 7.016l7.242 10.408h-6.879l-6.39-9.787h-7.205v9.787h-6.108v-24.92h15.054zm-8.946 4.446v6.281h7.485c3.646 0 5.422-.625 5.422-3.157 0-2.572-1.776-3.123-5.422-3.123h-7.485zm21.675-.07V17.5h25.121v4.34h-9.425v20.543h-6.312V21.839h-9.383zm39.026.071c-3.197 0-4.694.967-4.694 3.26 0 1.808 1.295 2.706 3.843 2.706h8.092c6.475 0 9.265 1.841 9.265 7.047 0 5.24-3.276 7.46-10.154 7.46H269.2V37.94h15.294c3.236 0 4.736-.66 4.736-2.81 0-2.222-1.378-2.881-4.331-2.881h-7.202c-6.636 0-9.667-2.152-9.667-7.149 0-5.412 3.272-7.638 10.193-7.638h15.98v4.446h-15.09z"/><g data-name="&amp;lt;Group&amp;gt;"><path data-name="&amp;lt;Compound Path&amp;gt;" d="M119.898 2.054l2.947 8.813 2.487-8.814h3.161l2.855 8.814 2.755-8.814h2.75l-3.938 11.465h-3.287l-2.715-8.558-2.382 8.558h-3.263l-4.242-11.465h2.872zm19.635 11.464V2.053h2.809v11.465h-2.809zM152.25 2.054c4.096 0 5.994 1.882 5.994 5.94a5.162 5.162 0 0 1-1.95 4.519 6.146 6.146 0 0 1-3.979 1.005h-5.909V2.053h5.843zm-3.164 1.995v7.472h3.106c2.38 0 3.123-.91 3.123-3.736 0-2.81-.743-3.736-3.123-3.736h-3.106zm35.579-1.995l2.947 8.813 2.483-8.814h3.162l2.855 8.814 2.752-8.814h2.752l-3.94 11.465h-3.286l-2.717-8.558-2.376 8.558h-3.268l-4.242-11.465h2.878zm24.32-.224c4.33 0 6.354 1.9 6.354 5.955 0 4.057-2.024 5.974-6.354 5.974-4.384 0-6.356-1.917-6.356-6.086 0-3.943 2.077-5.844 6.356-5.844zm-3.428 5.86c0 2.793 1.028 4.09 3.428 4.09 2.36 0 3.444-1.297 3.444-3.995s-1.084-3.99-3.444-3.99c-2.31 0-3.428 1.29-3.428 3.895zm19.633-5.636c3.019 0 4.457 1.037 4.457 3.45a2.99 2.99 0 0 1-2.575 3.223l3.18 4.79h-3.018l-2.807-4.502h-3.16v4.502h-2.678V2.054h6.601zm-3.923 2.045v2.887h3.283c1.598 0 2.381-.286 2.381-1.452 0-1.182-.783-1.435-2.38-1.435h-3.284zm30.023-2.045c4.102 0 6.003 1.882 6.003 5.94a5.168 5.168 0 0 1-1.955 4.519 6.14 6.14 0 0 1-3.977 1.005h-5.91V2.053h5.839zm-3.158 1.995v7.472h3.105c2.377 0 3.123-.91 3.123-3.736 0-2.81-.746-3.736-3.123-3.736h-3.105zm26.257-2.219c4.328 0 6.351 1.9 6.351 5.955 0 4.057-2.023 5.974-6.351 5.974-4.387 0-6.357-1.917-6.357-6.086 0-3.943 2.076-5.844 6.357-5.844zm-3.426 5.86c0 2.793 1.03 4.09 3.426 4.09 2.361 0 3.442-1.297 3.442-3.995s-1.08-3.99-3.442-3.99c-2.307 0-3.426 1.29-3.426 3.895z"/><path data-name="&amp;lt;Path&amp;gt;" d="M171.196 4.058V2.056l-10.327-.003v11.489h10.311v-1.998h-7.627V8.742h7.643V6.741h-7.643V4.058h7.643zm64.441 7.486V2.053h-2.684v11.489h10.309v-1.998h-7.625zm58.536-7.486V2.056l-10.324-.003v11.489h2.685v-4.8h7.639V6.741h-7.639V4.058h7.639z"/></g><path data-name="&amp;lt;Compound Path&amp;gt;" d="M52.191 0C23.367 0 0 10.017 0 22.372s23.367 22.373 52.191 22.373 52.192-10.018 52.192-22.373S81.017 0 52.19 0zm47.806 21.064c-2.969.365-7.509.55-11.96.643-.407-9.35-10.179-17.093-23.13-20.201 19.534 2.369 33.986 10.256 35.09 19.558zM39.339 1.643C26.653 4.838 17.15 12.505 16.765 21.729c-4.29-.073-8.801-.23-12.022-.542C5.74 12 20.117 4.174 39.339 1.642zm-34.6 21.55c3.07-.264 7.642-.394 12.026-.456.403 9.88 11.26 17.977 25.287 20.71C21.377 41.301 5.74 32.882 4.739 23.193zm63.696 11.975a19.224 19.224 0 0 1-15.317 8.309c-.083 0-.164.003-.249.005v-8.314h-.952v8.314l-.115-.002a19.297 19.297 0 0 1-14.834-8.312h-1.511a21.628 21.628 0 0 0 9.026 7.718A41.39 41.39 0 0 1 28.585 37.2c-5.909-3.772-9.538-8.888-9.731-14.486 2.625-.025 5.079-.027 6.965-.022a3.292 3.292 0 1 0 .028-.908c-1.886.008-4.346.004-6.993-.026.198-5.596 3.827-10.707 9.731-14.478a41.71 41.71 0 0 1 16.452-5.77 20.766 20.766 0 0 0-9.522 7.713h1.517a19.28 19.28 0 0 1 14.701-8.222L51.917 1v8.224h.952V1l.056.001A19.206 19.206 0 0 1 68.37 9.224h1.568a20.764 20.764 0 0 0-9.31-7.585 41.226 41.226 0 0 1 15.588 5.642c5.9 3.767 9.53 8.873 9.732 14.462-3.02.045-5.874.05-8.024.043v-8.615a2.753 2.753 0 0 0-2.847-2.902H56.47a2.664 2.664 0 0 0-2.636 2.745v9.164a2.622 2.622 0 0 0 2.68 2.854l2.642.022h13.217v3.756H56.54a2.773 2.773 0 0 0-2.744 2.774 2.696 2.696 0 0 0 2.453 2.776h18.828a2.68 2.68 0 0 0 2.847-2.85v-8.819c2.156-.005 5.016.002 8.026.035-.2 5.595-3.83 10.705-9.734 14.475a40.939 40.939 0 0 1-14.934 5.527 21.65 21.65 0 0 0 8.716-7.56h-1.563zm3.937-19.344v3.886H59.39v-3.886h12.983zm-9.566 27.614C76.8 40.694 87.62 32.615 88.038 22.758c4.587.075 9.213.234 11.965.547C98.9 32.93 83.35 41.28 62.806 43.438zM47.804 16.836a3.28 3.28 0 1 0-3.281-3.28 3.279 3.279 0 0 0 3.28 3.28zM38.44 27.815a3.28 3.28 0 1 0 3.282 3.28 3.28 3.28 0 0 0-3.282-3.28zm-9.363 0a3.28 3.28 0 1 0 3.28 3.28 3.278 3.278 0 0 0-3.28-3.28zm0-17.538a3.28 3.28 0 1 0 3.28 3.278 3.276 3.276 0 0 0-3.28-3.278zm18.727 8.768a3.281 3.281 0 1 0 3.281 3.281 3.282 3.282 0 0 0-3.281-3.28zm0 8.77a3.28 3.28 0 1 0 3.28 3.28 3.28 3.28 0 0 0-3.28-3.28zm-9.365-8.77a3.281 3.281 0 1 0 3.283 3.281 3.282 3.282 0 0 0-3.282-3.28zm0-8.768a3.28 3.28 0 1 0 3.283 3.278 3.279 3.279 0 0 0-3.282-3.278z"/></g></svg>