<svg width="50" height="50" viewBox="0 0 50 50" xmlns="http://www.w3.org/2000/svg"><title>Weather-Cloud-and-Wind-Increasing-night</title><g fill="none" fill-rule="evenodd"><path opacity=".02" d="M0 0h50v50H0z"/><path d="M5 21.876C5 25.252 7.718 28 11.058 28h26.339C41.59 28 45 24.55 45 20.31s-3.41-7.689-7.603-7.689c-.78 0-1.556.122-2.304.36l-.487.157-.172-.487C32.824 8.074 28.522 5 23.729 5c-5.86 0-10.722 4.44-11.313 10.327l-.054.545-.538-.067a6.026 6.026 0 0 0-.766-.055C7.718 15.75 5 18.498 5 21.876z" fill="#C2C8CD"/><path d="M13.442 32.27a.999.999 0 0 1-1.001-.996c0-.551.448-.996 1.001-.996H34.56c1.386 0 2.882-1.019 2.882-2.662 0-1.608-1.24-2.448-2.461-2.448-1.097 0-2.062.77-2.299 1.835a.994.994 0 0 1-1.194.756.995.995 0 0 1-.76-1.188c.438-1.967 2.226-3.396 4.253-3.396 2.542 0 4.463 1.91 4.463 4.44 0 2.568-2.192 4.654-4.884 4.654H13.442zM33.064 40.066a.994.994 0 0 1 .761-1.187.995.995 0 0 1 1.193.755 2.365 2.365 0 0 0 2.3 1.836c1.223 0 2.46-.843 2.46-2.452 0-1.641-1.497-2.66-2.883-2.66H15.78a.996.996 0 1 1 0-1.99h21.116c2.693 0 4.884 2.086 4.884 4.65 0 2.533-1.917 4.443-4.46 4.443-2.03 0-3.818-1.428-4.255-3.395z" fill="#9DA6AF"/></g></svg>