<svg xmlns="http://www.w3.org/2000/svg" width="50" height="50" viewBox="0 0 50 50"><g fill="none" fill-rule="evenodd"><path opacity=".023" d="M0 0h50v50H0z"/><path fill="#BAC6D1" d="M50 24.409C50 27.492 47.554 30 44.548 30H20.843C17.07 30 14 26.85 14 22.98c0-3.872 3.07-7.022 6.843-7.022.702 0 1.4.111 2.073.33l.44.143.154-.445C24.959 11.807 28.83 9 33.144 9c5.273 0 9.65 4.053 10.181 9.429l.05.497.484-.061c.267-.034.486-.05.689-.05 3.006 0 5.452 2.509 5.452 5.594z"/><path fill="#D6E3F2" d="M0 30.876C0 34.252 2.718 37 6.058 37h26.339C36.59 37 40 33.55 40 29.31s-3.41-7.689-7.603-7.689c-.78 0-1.556.122-2.304.36l-.487.157-.172-.487C27.824 17.074 23.522 14 18.729 14c-5.86 0-10.722 4.44-11.313 10.327l-.054.545-.538-.067a6.026 6.026 0 0 0-.766-.055C2.718 24.75 0 27.498 0 30.876z"/></g></svg>