<svg xmlns="http://www.w3.org/2000/svg" width="49" height="43" viewBox="0 0 49 43"><g fill="none" fill-rule="evenodd"><path opacity=".023" d="M0-4h50v50H0z"/><g fill="#38A1E8"><path d="M26.873 36.008s1.335 3.742.984 5.177c-.29 1.188-1.477 1.923-2.648 1.64-1.176-.285-1.888-1.48-1.599-2.667.35-1.436 3.263-4.15 3.263-4.15M35.285 35.912s1.335 3.742.984 5.178c-.29 1.187-1.476 1.922-2.648 1.638-1.175-.284-1.888-1.48-1.598-2.666.35-1.436 3.262-4.15 3.262-4.15"/></g><path d="M9.935 14.646c-.898 3.873 1.518 7.739 5.395 8.639 3.877.897 7.748-1.514 8.645-5.387a7.202 7.202 0 0 0-5.397-8.637c-3.876-.899-7.747 1.511-8.643 5.385zm.225-13.191a.983.983 0 0 0-.526 1.291l1.764 4.148a.987.987 0 0 0 1.818-.771l-1.763-4.148a.982.982 0 0 0-.686-.572.98.98 0 0 0-.607.052zm-7.45 6.83a.982.982 0 0 0 .334 1.353L6.91 11.96a.99.99 0 0 0 1.352-.341.981.981 0 0 0-.335-1.352L4.062 7.945a.988.988 0 0 0-1.352.34zm3.377 8.44l-4.491.393a.987.987 0 0 0 .172 1.967l4.492-.391a.988.988 0 0 0-.173-1.968zm2.313 6.31L4.997 25.99a.987.987 0 0 0 1.297 1.49l3.403-2.956a.987.987 0 0 0-1.297-1.49zm5.581 3.746l-1.013 4.39a.988.988 0 0 0 1.925.445l1.014-4.39a.989.989 0 0 0-1.926-.445zm6.882-1.264a.983.983 0 0 0-.526 1.29l1.763 4.15a.992.992 0 0 0 1.295.519.983.983 0 0 0 .524-1.292l-1.762-4.147a.986.986 0 0 0-1.294-.52zm4.659-4.046a.982.982 0 0 0 .334 1.353l3.865 2.322a.99.99 0 0 0 1.352-.341.98.98 0 0 0-.335-1.351l-3.865-2.322a.99.99 0 0 0-1.352.34zm6.772-7.47l-4.491.391a.987.987 0 0 0 .172 1.967l4.492-.392a.986.986 0 0 0 .893-1.068.986.986 0 0 0-1.066-.898zm-4.302-8.563L24.589 8.39a.99.99 0 0 0 1.297 1.492l3.402-2.955a.988.988 0 0 0-1.296-1.49zm-8.517-4.404l-1.014 4.39a.989.989 0 0 0 1.925.445l1.014-4.39a.989.989 0 0 0-1.925-.445z" fill="#F9A300"/><path fill="#D6E3F2" d="M9 26.876C9 30.252 11.718 33 15.058 33h26.339C45.59 33 49 29.55 49 25.31s-3.41-7.689-7.603-7.689c-.78 0-1.556.122-2.304.36l-.487.157-.172-.487C36.824 13.074 32.522 10 27.729 10c-5.86 0-10.722 4.44-11.313 10.327l-.054.545-.538-.067a6.026 6.026 0 0 0-.766-.055C11.718 20.75 9 23.498 9 26.876z"/></g></svg>