<svg xmlns="http://www.w3.org/2000/svg" width="50" height="50" viewBox="0 0 50 50"><g fill="none" fill-rule="evenodd"><path opacity=".023" d="M0 0h50v50H0z"/><g fill="#38A1E8"><path d="M21.815 32.096s1.335 3.742.984 5.177c-.29 1.188-1.477 1.923-2.648 1.64-1.176-.285-1.888-1.48-1.599-2.667.35-1.436 3.263-4.15 3.263-4.15M30.227 32s1.335 3.742.984 5.178c-.29 1.187-1.476 1.922-2.648 1.638-1.175-.284-1.888-1.48-1.598-2.666.35-1.436 3.262-4.15 3.262-4.15"/></g><path fill="#D6E3F2" d="M5 21.876C5 25.252 7.718 28 11.058 28h26.339C41.59 28 45 24.55 45 20.31s-3.41-7.689-7.603-7.689c-.78 0-1.556.122-2.304.36l-.487.157-.172-.487C32.824 8.074 28.522 5 23.729 5c-5.86 0-10.722 4.44-11.313 10.327l-.054.545-.538-.067a6.026 6.026 0 0 0-.766-.055C7.718 15.75 5 18.498 5 21.876z"/></g></svg>