<svg xmlns="http://www.w3.org/2000/svg" width="50" height="46" viewBox="0 0 50 46"><g fill="none" fill-rule="evenodd"><path opacity=".023" d="M0-2h50v50H0z"/><path d="M11.07 40.041c-.59 0-1.07-.485-1.07-1.085s.48-1.086 1.07-1.086h35.257c.591 0 1.07.486 1.07 1.086 0 .6-.479 1.085-1.07 1.085H11.07zm23.317 5.73H11.071c-.592 0-1.071-.485-1.071-1.085s.48-1.086 1.07-1.086h23.317c.592 0 1.071.486 1.071 1.086 0 .6-.479 1.085-1.07 1.085" fill="#BAC6D1"/><path d="M9.935 15.146c-.898 3.873 1.518 7.739 5.395 8.639 3.877.897 7.748-1.514 8.645-5.387a7.202 7.202 0 0 0-5.397-8.637c-3.876-.899-7.747 1.511-8.643 5.385zm.225-13.191a.983.983 0 0 0-.526 1.291l1.764 4.148a.987.987 0 0 0 1.818-.771l-1.763-4.148a.982.982 0 0 0-.686-.572.98.98 0 0 0-.607.052zm-7.45 6.83a.982.982 0 0 0 .334 1.353L6.91 12.46a.99.99 0 0 0 1.352-.341.981.981 0 0 0-.335-1.352L4.062 8.445a.988.988 0 0 0-1.352.34zm3.377 8.44l-4.491.393a.987.987 0 0 0 .172 1.967l4.492-.391a.988.988 0 0 0-.173-1.968zm2.313 6.31L4.997 26.49a.987.987 0 0 0 1.297 1.49l3.403-2.956a.987.987 0 0 0-1.297-1.49zm5.581 3.746l-1.013 4.39a.988.988 0 0 0 1.925.445l1.014-4.39a.989.989 0 0 0-1.926-.445zm6.882-1.264a.983.983 0 0 0-.526 1.29l1.763 4.15a.992.992 0 0 0 1.295.519.983.983 0 0 0 .524-1.292l-1.762-4.147a.986.986 0 0 0-1.294-.52zm4.659-4.046a.982.982 0 0 0 .334 1.353l3.865 2.322a.99.99 0 0 0 1.352-.341.98.98 0 0 0-.335-1.351l-3.865-2.322a.99.99 0 0 0-1.352.34zm6.772-7.47l-4.491.391a.987.987 0 0 0 .172 1.967l4.492-.392a.986.986 0 0 0 .893-1.068.986.986 0 0 0-1.066-.898zm-4.302-8.563L24.589 8.89a.99.99 0 0 0 1.297 1.492l3.402-2.955a.988.988 0 0 0-1.296-1.49zm-8.517-4.404l-1.014 4.39a.989.989 0 0 0 1.925.445l1.014-4.39a.989.989 0 0 0-1.925-.445z" fill="#F9A300"/><path fill="#D6E3F2" d="M8 28.61C8 32.131 10.854 35 14.36 35h27.656C46.42 35 50 31.4 50 26.976c0-4.424-3.58-8.024-7.984-8.024-.819 0-1.633.128-2.418.377l-.512.163-.18-.509C37.216 14.208 32.698 11 27.666 11c-6.153 0-11.26 4.633-11.879 10.775l-.057.57-.564-.07a6.366 6.366 0 0 0-.805-.058C10.854 22.217 8 25.084 8 28.61z"/></g></svg>