<svg xmlns="http://www.w3.org/2000/svg" width="50" height="50" viewBox="0 0 50 50"><g fill="none" fill-rule="evenodd"><path opacity=".023" d="M0 0h50v50H0z"/><path d="M42.545 34.028H7.289c-.592 0-1.071-.485-1.071-1.085s.479-1.086 1.07-1.086h35.257c.591 0 1.07.486 1.07 1.086 0 .6-.479 1.085-1.07 1.085m0 5.157H7.289c-.592 0-1.071-.486-1.071-1.086 0-.6.479-1.085 1.07-1.085h35.257c.591 0 1.07.486 1.07 1.085 0 .6-.479 1.086-1.07 1.086m-11.94 4.883H7.288c-.592 0-1.07-.485-1.07-1.085s.478-1.086 1.07-1.086h23.317c.591 0 1.07.486 1.07 1.086 0 .6-.479 1.085-1.07 1.085" fill="#BAC6D1"/><path fill="#D6E3F2" d="M4 21.876C4 25.252 6.718 28 10.058 28h26.339C40.59 28 44 24.55 44 20.31s-3.41-7.689-7.603-7.689c-.78 0-1.556.122-2.304.36l-.487.157-.172-.487C31.824 8.074 27.522 5 22.729 5c-5.86 0-10.722 4.44-11.313 10.327l-.054.545-.538-.067a6.026 6.026 0 0 0-.766-.055C6.718 15.75 4 18.498 4 21.876z"/></g></svg>