<svg width="50" height="50" viewBox="0 0 50 50" xmlns="http://www.w3.org/2000/svg"><title>Weather-Wind-and-Rain-Increasing-night</title><g fill="none" fill-rule="evenodd"><path opacity=".02" d="M0 0h50v50H0z"/><path d="M5 21.876C5 25.252 7.718 28 11.058 28h26.339C41.59 28 45 24.55 45 20.31s-3.41-7.689-7.603-7.689c-.78 0-1.556.122-2.304.36l-.487.157-.172-.487C32.824 8.074 28.522 5 23.729 5c-5.86 0-10.722 4.44-11.313 10.327l-.054.545-.538-.067a6.026 6.026 0 0 0-.766-.055C7.718 15.75 5 18.498 5 21.876z" fill="#C2C8CD"/><g fill="#9DA6AF"><path d="M24.614 31.454a.89.89 0 0 1-.893-.887c0-.491.4-.887.893-.887h13.592c1.235 0 2.569-.909 2.569-2.373 0-1.433-1.105-2.181-2.193-2.181-.978 0-1.838.686-2.048 1.635a.885.885 0 0 1-1.065.674.886.886 0 0 1-.676-1.059c.39-1.752 1.982-3.026 3.789-3.026 2.265 0 3.976 1.702 3.976 3.957 0 2.288-1.953 4.147-4.352 4.147H24.614zM36.875 38.4a.885.885 0 0 1 .678-1.057.886.886 0 0 1 1.063.673 2.107 2.107 0 0 0 2.049 1.635c1.09 0 2.191-.751 2.191-2.184 0-1.463-1.333-2.37-2.568-2.37H26.696a.888.888 0 1 1 0-1.774h13.592c2.4 0 4.352 1.86 4.352 4.144 0 2.256-1.708 3.958-3.975 3.958-1.808 0-3.401-1.272-3.79-3.024z"/></g><path d="M11.842 29.594s1.363 3.643 1.023 5.034c-.281 1.15-1.464 1.855-2.64 1.571-1.177-.284-1.899-1.449-1.617-2.6.34-1.391 3.234-4.005 3.234-4.005M19.842 29.594s1.363 3.643 1.023 5.034c-.281 1.15-1.464 1.855-2.64 1.571-1.177-.284-1.899-1.449-1.617-2.6.34-1.391 3.234-4.005 3.234-4.005M16.842 37.594s1.363 3.643 1.023 5.034c-.281 1.15-1.464 1.855-2.64 1.571-1.177-.284-1.899-1.449-1.617-2.6.34-1.391 3.234-4.005 3.234-4.005" fill="#C3CED2"/></g></svg>