<svg width="50" height="50" viewBox="0 0 50 50" xmlns="http://www.w3.org/2000/svg"><title>Weather-Heavy-Rain-night</title><g fill="none" fill-rule="evenodd"><path opacity=".023" d="M0 0h50v50H0z"/><g fill="#C3CED2"><path d="M13.652 30.94s1.364 3.642 1.023 5.033c-.281 1.15-1.464 1.855-2.639 1.571-1.177-.284-1.9-1.449-1.617-2.6.34-1.391 3.233-4.004 3.233-4.004M22.082 30.77s1.364 3.643 1.023 5.033c-.281 1.15-1.464 1.856-2.639 1.572-1.177-.284-1.9-1.45-1.617-2.6.34-1.391 3.233-4.005 3.233-4.005M30.842 30.594s1.363 3.643 1.023 5.034c-.281 1.15-1.464 1.855-2.64 1.571-1.177-.284-1.899-1.449-1.617-2.6.34-1.391 3.234-4.005 3.234-4.005M39.094 30.186s1.363 3.642 1.022 5.033c-.28 1.15-1.463 1.855-2.639 1.572-1.177-.285-1.899-1.45-1.617-2.6.34-1.392 3.234-4.005 3.234-4.005M18.597 38.63s1.364 3.641 1.023 5.032c-.28 1.15-1.463 1.855-2.639 1.572-1.177-.284-1.899-1.45-1.617-2.6.34-1.392 3.233-4.005 3.233-4.005M27.357 38.453s1.364 3.643 1.023 5.033c-.281 1.15-1.464 1.856-2.639 1.572-1.177-.284-1.9-1.45-1.617-2.6.34-1.391 3.233-4.005 3.233-4.005M35.609 38.045s1.364 3.642 1.023 5.033c-.281 1.15-1.464 1.855-2.64 1.572-1.177-.285-1.898-1.45-1.616-2.6.34-1.392 3.233-4.005 3.233-4.005"/></g><path d="M50 22.409C50 25.492 47.554 28 44.548 28H20.843C17.07 28 14 24.85 14 20.98c0-3.872 3.07-7.022 6.843-7.022.702 0 1.4.111 2.073.33l.44.143.154-.445C24.959 9.807 28.83 7 33.144 7c5.273 0 9.65 4.053 10.181 9.429l.05.497.484-.061c.267-.034.486-.05.689-.05 3.006 0 5.452 2.509 5.452 5.594z" fill="#9DA3A7"/><path d="M0 21.876C0 25.252 2.718 28 6.058 28h26.339C36.59 28 40 24.55 40 20.31s-3.41-7.689-7.603-7.689c-.78 0-1.556.122-2.304.36l-.487.157-.172-.487C27.824 8.074 23.522 5 18.729 5 12.87 5 8.007 9.44 7.416 15.327l-.054.545-.538-.067a6.026 6.026 0 0 0-.766-.055C2.718 15.75 0 18.498 0 21.876z" fill="#C2C8CD"/></g></svg>