<svg xmlns="http://www.w3.org/2000/svg" width="50" height="50" viewBox="0 0 50 50"><g fill="none" fill-rule="evenodd"><path opacity=".02" d="M0 0h50v50H0z"/><path fill="#D6E3F2" d="M5 21.876C5 25.252 7.718 28 11.058 28h26.339C41.59 28 45 24.55 45 20.31s-3.41-7.689-7.603-7.689c-.78 0-1.556.122-2.304.36l-.487.157-.172-.487C32.824 8.074 28.522 5 23.729 5c-5.86 0-10.722 4.44-11.313 10.327l-.054.545-.538-.067a6.026 6.026 0 0 0-.766-.055C7.718 15.75 5 18.498 5 21.876z"/><path d="M24.613 31.453a.89.89 0 0 1-.892-.887c0-.49.4-.887.892-.887h13.593c1.235 0 2.568-.908 2.568-2.372 0-1.433-1.104-2.181-2.193-2.181-.978 0-1.838.686-2.048 1.635a.885.885 0 0 1-1.065.673.886.886 0 0 1-.676-1.058c.39-1.753 1.983-3.026 3.789-3.026 2.265 0 3.976 1.702 3.976 3.957 0 2.288-1.952 4.146-4.351 4.146H24.613zm12.26 6.947a.885.885 0 0 1 .679-1.058.886.886 0 0 1 1.063.674 2.107 2.107 0 0 0 2.05 1.635c1.09 0 2.19-.751 2.19-2.184 0-1.463-1.332-2.37-2.567-2.37H26.695a.888.888 0 1 1 0-1.774h13.593c2.399 0 4.351 1.86 4.351 4.144 0 2.256-1.708 3.958-3.975 3.958-1.808 0-3.4-1.272-3.79-3.025z" fill="#BAC6D1"/><path fill="#38A1E8" d="M11.842 29.594s1.364 3.643 1.023 5.034c-.281 1.15-1.464 1.855-2.64 1.571-1.176-.284-1.898-1.449-1.616-2.6.34-1.391 3.233-4.005 3.233-4.005M19.842 29.594s1.364 3.643 1.023 5.034c-.281 1.15-1.464 1.855-2.64 1.571-1.176-.284-1.898-1.449-1.616-2.6.34-1.391 3.233-4.005 3.233-4.005M16.842 37.594s1.364 3.643 1.023 5.034c-.281 1.15-1.464 1.855-2.64 1.571-1.176-.284-1.898-1.449-1.616-2.6.34-1.391 3.233-4.005 3.233-4.005"/></g></svg>