<svg xmlns="http://www.w3.org/2000/svg" xmlns:xlink="http://www.w3.org/1999/xlink" width="256" height="68">
  <defs>
    <path id="a" d="M13.657 16.341c0-2.47 2.2-4.588 4.766-4.588s4.767 2.117 4.767 4.588-2.201 4.589-4.767 4.589c-2.75 0-4.766-1.942-4.766-4.589zm0 12.354c0-2.472 2.2-4.59 4.766-4.59s4.767 2.118 4.767 4.59c0 2.47-2.201 4.588-4.767 4.588-2.566 0-4.766-2.118-4.766-4.588zM27.313 16.34c0-2.47 2.2-4.588 4.767-4.588 2.565 0 4.765 2.117 4.765 4.588s-2.2 4.589-4.765 4.589c-2.567 0-4.767-1.942-4.767-4.589zM13.657 41.047c0-2.47 2.2-4.589 4.766-4.589s4.767 2.12 4.767 4.59c0 2.47-2.201 4.59-4.767 4.59-2.75 0-4.766-2.12-4.766-4.59zm13.656 0c0-2.47 2.2-4.589 4.767-4.589 2.565 0 4.765 2.12 4.765 4.59 0 2.47-2.2 4.59-4.765 4.59-2.567 0-4.767-2.12-4.767-4.59zm0-12.352c0-2.472 2.2-4.59 4.767-4.59 2.565 0 4.765 2.118 4.765 4.59 0 2.47-2.2 4.588-4.765 4.588-2.567 0-4.767-2.118-4.767-4.588zM0 40.693c0-2.468 2.2-4.588 4.766-4.588 2.567 0 4.766 2.12 4.766 4.588 0 2.472-2.2 4.591-4.766 4.591-2.567 0-4.766-2.12-4.766-4.59zm0-11.998c0-2.472 2.2-4.59 4.766-4.59 2.567 0 4.766 2.118 4.766 4.59 0 2.47-2.2 4.588-4.766 4.588C2.199 33.283 0 31.165 0 28.695zM9.533 16.34c0 2.647-2.017 4.589-4.767 4.589C2.2 20.93 0 18.812 0 16.34c0-2.47 2.2-4.588 4.766-4.588 2.567 0 4.767 2.117 4.767 4.588zm36.582-9.222l-3.742-1.813V3.022L58.192 0h2.471v22.23c2.543-3.156 6.568-6.783 13.207-6.783 6.85 0 10.947 3.627 10.947 11.015V47.35c0 2.015 1.13 2.217 3.742 2.418v2.82H66.737v-2.82c2.614-.2 3.53-.403 3.53-2.418V27.67c0-2.484-.847-4.163-4.378-4.163-1.976 0-3.601.335-5.226.873V47.35c0 2.015.92 2.217 3.531 2.418v2.82H42.373v-2.82c2.613-.2 3.742-.403 3.742-2.418V7.119zm42.853 27.872c0-11.216 8.404-19.545 20.48-19.545s20.48 7.053 20.48 18.269c0 11.217-8.404 19.544-20.48 19.544s-20.48-7.052-20.48-18.268zm25.494 1.948c0-11.485-1.342-18.537-5.367-18.537-3.743 0-4.661 4.97-4.661 13.365 0 11.486 1.342 18.537 5.367 18.537 3.743 0 4.661-4.97 4.661-13.365zm44.667-9.268c0-2.485-.847-4.164-4.378-4.164-1.978 0-3.603.335-5.226.873v22.969c0 2.015.918 2.217 3.531 2.417v2.822h-21.823v-2.822c2.613-.2 3.743-.402 3.743-2.417V23.842l-3.743-2.283v-2.082l15.75-4.03h2.824l-.282 6.784c2.542-3.157 6.568-6.785 13.206-6.785 6.85 0 10.946 3.628 10.946 11.016v20.887c0 2.015 1.13 2.217 3.743 2.417v2.822h-21.822v-2.822c2.613-.2 3.531-.402 3.531-2.417V27.67zm54.222 2.82v1.68h-22.387c0 7.387 4.379 12.089 10.593 12.089 4.45 0 7.84-1.41 10.523-4.702l1.484.873c-1.978 7.791-7.558 12.828-16.809 12.828-10.522 0-18.926-6.38-18.926-18.134 0-12.156 9.11-19.678 19.562-19.678 10.593 0 15.96 6.246 15.96 15.045zm-22.316-1.611h9.957c0-6.65-1.13-10.477-4.52-10.477-3.53 0-5.155 4.163-5.437 10.477zm55.119-5.575c.353-.94.565-1.41.565-2.015 0-1.41-.848-1.88-4.59-2.35v-2.821h13.206v2.82c-2.402.74-2.966 1.21-3.602 2.687l-16.384 36.536c-2.754 6.112-5.508 9.336-10.594 9.336-2.896 0-5.014-1.075-6.073-2.687v-5.44c1.906.336 3.53.672 5.79.672 4.027 0 5.933-1.075 7.134-3.493l1.06-2.149-16.527-32.775c-.706-1.478-1.2-1.948-3.601-2.686v-2.821h24.153v2.82c-3.743.47-4.59.94-4.59 2.351 0 .605.21 1.075.494 1.88l6.92 15.851 6.639-15.716z"/>
  </defs>
  <g fill="none" fill-rule="evenodd">
    <mask id="b" fill="#fff">
      <use xlink:href="#a"/>
    </mask>
    <use fill="#8249FF" xlink:href="#a"/>
    <g fill="#8249FF" fill-rule="nonzero" mask="url(#b)">
      <path d="M0 0h256v68H0z"/>
    </g>
  </g>
</svg>
