<svg width="50" height="50" viewBox="0 0 50 50" xmlns="http://www.w3.org/2000/svg"><title>Weather-Late-Thunder-night</title><g fill="none" fill-rule="evenodd"><path opacity=".023" d="M0 0h50v50H0z"/><path d="M32.732 30.122s1.372 3.736 1.025 5.166a2.21 2.21 0 0 1-2.672 1.618 2.212 2.212 0 0 1-1.632-2.667c.347-1.429 3.279-4.117 3.279-4.117M41.258 29.963s1.373 3.736 1.026 5.166a2.21 2.21 0 0 1-2.673 1.618 2.212 2.212 0 0 1-1.631-2.666c.346-1.43 3.278-4.118 3.278-4.118M8.452 30.6s1.372 3.737 1.025 5.166a2.21 2.21 0 0 1-2.672 1.618 2.212 2.212 0 0 1-1.632-2.666C5.52 33.29 8.452 30.6 8.452 30.6" fill="#C3CED2"/><path d="M25.397 32.501h-7.013l.37-1.03c.669-1.863 1.276-3.551 1.468-4.08.319-.882.332-1.568.035-1.982A1.01 1.01 0 0 0 19.54 25h-2.123c-1.331 0-2.144 1.329-2.434 2.466-.09.355-.196.763-.311 1.21-.463 1.794-1.097 4.253-1.537 6.17-.312 1.356-.005 1.924.142 2.106.136.168.326.249.58.249h7.299L18.6 44.499c-.118.335-.1.52-.08.58.098.013.446-.067.76-.518 1.486-2.136 5.231-7.662 6.866-10.178.396-.61.522-1.111.354-1.414-.154-.275-.607-.468-1.104-.468" fill="#8B9BB4"/><path d="M13 22.408C13 25.491 15.446 28 18.452 28h23.705C45.931 28 49 24.85 49 20.98c0-3.872-3.07-7.022-6.843-7.022-.702 0-1.4.112-2.073.33l-.439.143-.155-.446C38.042 9.807 34.17 7 29.856 7c-5.273 0-9.65 4.054-10.181 9.429l-.05.498-.483-.062a5.347 5.347 0 0 0-.69-.05c-3.006 0-5.452 2.509-5.452 5.593z" fill="#C2C8CD"/><path d="M40 21.876C40 25.253 37.282 28 33.942 28H7.602C3.413 28 0 24.55 0 20.31s3.411-7.689 7.603-7.689c.78 0 1.556.122 2.303.361l.489.156.171-.487C12.176 8.075 16.478 5 21.271 5c5.86 0 10.723 4.439 11.313 10.327l.054.545.539-.067a6.14 6.14 0 0 1 .765-.055c3.34 0 6.058 2.747 6.058 6.126z" fill="#9DA3A7"/></g></svg>