<svg xmlns="http://www.w3.org/2000/svg" width="50" height="50" viewBox="0 0 50 50"><g fill="none" fill-rule="evenodd"><path opacity=".023" d="M0 0h50v50H0z"/><path d="M15.84 37.949a.672.672 0 0 1-.67-.67v-1.342l-1.278.738-.22.023a.673.673 0 0 1-.343-1.249l1.17-.674-1.163-.671a.67.67 0 0 1-.248-.912.67.67 0 0 1 .915-.253l1.166.674v-1.342a.67.67 0 1 1 1.341 0v1.342l1.162-.671a.672.672 0 0 1 .683 1.155l-1.174.678 1.162.67a.677.677 0 0 1 .244.919.673.673 0 0 1-.58.334h-.132l-.199-.087-1.166-.674v1.342c0 .369-.3.67-.67.67m9-.34a.672.672 0 0 1-.67-.67v-1.342l-1.278.738-.22.023a.673.673 0 0 1-.343-1.249l1.17-.674-1.163-.671a.67.67 0 0 1-.248-.912.67.67 0 0 1 .915-.253l1.166.674v-1.342a.67.67 0 1 1 1.341 0v1.342l1.162-.671a.672.672 0 0 1 .683 1.155l-1.174.678 1.162.67a.677.677 0 0 1 .244.919.673.673 0 0 1-.58.334h-.132l-.199-.087-1.166-.674v1.342c0 .369-.3.67-.67.67m9-.26a.672.672 0 0 1-.67-.67v-1.342l-1.278.738-.22.023a.673.673 0 0 1-.343-1.249l1.17-.674-1.163-.671a.67.67 0 0 1-.248-.912.67.67 0 0 1 .915-.253l1.166.674v-1.342a.67.67 0 1 1 1.341 0v1.342l1.162-.671a.672.672 0 0 1 .683 1.155l-1.174.678 1.162.67a.677.677 0 0 1 .244.919.673.673 0 0 1-.58.334h-.132l-.199-.087-1.166-.674v1.342c0 .369-.3.67-.67.67" fill="#38A1E8"/><path fill="#D6E3F2" d="M5 21.876C5 25.252 7.718 28 11.058 28h26.339C41.59 28 45 24.55 45 20.31s-3.41-7.689-7.603-7.689c-.78 0-1.556.122-2.304.36l-.487.157-.172-.487C32.824 8.074 28.522 5 23.729 5c-5.86 0-10.722 4.44-11.313 10.327l-.054.545-.538-.067a6.026 6.026 0 0 0-.766-.055C7.718 15.75 5 18.498 5 21.876z"/></g></svg>