<?xml version="1.0" encoding="UTF-8"?>
<svg width="73px" height="40px" viewBox="0 0 73 40" version="1.1" xmlns="http://www.w3.org/2000/svg" xmlns:xlink="http://www.w3.org/1999/xlink">
    <!-- Generator: Sketch 42 (36781) - http://www.bohemiancoding.com/sketch -->
    <title>icon</title>
    <desc>Created with Sketch.</desc>
    <defs></defs>
    <g id="Video-Index" stroke="none" stroke-width="1" fill="none" fill-rule="evenodd" opacity="0.300000012">
        <g id="Desktop-HD" transform="translate(-468.000000, -40.000000)" fill="#FFFFFF">
            <g id="icon" transform="translate(468.000000, 40.000000)">
                <path d="M63.3456285,0 C62.7701459,0 62.2196842,0.232532495 61.8193484,0.651090987 C60.9936559,1.48820797 61.0186769,2.81364319 61.8693904,3.62750693 C70.9770291,12.673021 70.9770291,27.2993149 61.8693904,36.344829 C60.9936559,37.1354395 60.9436139,38.484128 61.7442855,39.321245 C62.569978,40.1816152 63.8960902,40.2281217 64.7718247,39.4375112 C64.7968457,39.3910047 64.8468877,39.3677515 64.8719087,39.321245 C75.6309324,28.6480034 75.6309324,11.3010793 64.8719087,0.651090987 C64.4715729,0.232532495 63.9211112,0 63.3456285,0" id="Fill-4"></path>
                <path d="M56.3970893,4.70588235 C55.8485038,4.70588235 55.3237698,4.9443978 54.9421451,5.34987405 C54.1550442,6.20852965 54.1788957,7.59191923 54.9898482,8.42672328 C60.9765859,14.8189372 60.9765859,25.1228044 54.9898482,31.5150183 C54.1311926,32.3021193 54.059638,33.6616573 54.7990359,34.568016 C55.5384337,35.4505231 56.8264171,35.5459293 57.6612212,34.7588283 C57.7327758,34.6872737 57.7804789,34.6395706 57.8520336,34.568016 C65.3891216,26.506194 65.3891216,13.4116961 57.8520336,5.34987405 C57.4704088,4.9443978 56.9456749,4.70588235 56.3970893,4.70588235" id="Fill-9"></path>
                <path d="M49.072886,9.41176471 C48.5287851,9.41176471 48.0083408,9.66382764 47.6298359,10.0923346 L47.6298359,10.1175409 C46.8491695,11.0249675 46.872826,12.4617262 47.677149,13.3439465 C50.9180975,17.0492716 50.9180975,22.9727506 47.677149,26.6780757 C46.872826,27.560296 46.872826,29.022261 47.677149,29.9044813 C48.4578154,30.8119079 49.7352696,30.8119079 50.515936,29.9296876 C55.3182174,24.4599219 55.3182174,15.5621003 50.515936,10.0923346 C50.1374311,9.66382764 49.6169868,9.41176471 49.072886,9.41176471" id="Fill-12"></path>
                <g id="Group" transform="translate(12.941176, 20.000000) scale(-1, 1) translate(-12.941176, -20.000000) ">
                    <path d="M16.286805,0 C15.7113223,0 15.1608607,0.232532495 14.7605249,0.651090987 C13.9348324,1.48820797 13.9598534,2.81364319 14.8105669,3.62750693 C23.9182056,12.673021 23.9182056,27.2993149 14.8105669,36.344829 C13.9348324,37.1354395 13.8847904,38.484128 14.6854619,39.321245 C15.5111545,40.1816152 16.8372667,40.2281217 17.7130012,39.4375112 C17.7380222,39.3910047 17.7880641,39.3677515 17.8130851,39.321245 C28.5721089,28.6480034 28.5721089,11.3010793 17.8130851,0.651090987 C17.4127494,0.232532495 16.8622877,0 16.286805,0" id="Fill-4"></path>
                    <path d="M9.33826582,4.70588235 C8.7896803,4.70588235 8.26494632,4.9443978 7.88332161,5.34987405 C7.09622064,6.20852965 7.12007219,7.59191923 7.9310247,8.42672328 C13.9177623,14.8189372 13.9177623,25.1228044 7.9310247,31.5150183 C7.0723691,32.3021193 7.00081446,33.6616573 7.74021234,34.568016 C8.47961022,35.4505231 9.76759362,35.5459293 10.6023977,34.7588283 C10.6739523,34.6872737 10.7216554,34.6395706 10.79321,34.568016 C18.3302981,26.506194 18.3302981,13.4116961 10.79321,5.34987405 C10.4115853,4.9443978 9.88685134,4.70588235 9.33826582,4.70588235" id="Fill-9"></path>
                    <path d="M2.01406242,9.41176471 C1.46996158,9.41176471 0.949517291,9.66382764 0.571012355,10.0923346 L0.571012355,10.1175409 C-0.209654076,11.0249675 -0.185997518,12.4617262 0.618325472,13.3439465 C3.85927399,17.0492716 3.85927399,22.9727506 0.618325472,26.6780757 C-0.185997518,27.560296 -0.185997518,29.022261 0.618325472,29.9044813 C1.3989919,30.8119079 2.67644606,30.8119079 3.45711249,29.9296876 C8.25939387,24.4599219 8.25939387,15.5621003 3.45711249,10.0923346 C3.07860756,9.66382764 2.55816327,9.41176471 2.01406242,9.41176471" id="Fill-12"></path>
                </g>
                <path d="M36.4588737,24.0649318 C34.1628316,24.0649318 32.3353694,22.2374697 32.3353694,19.9414275 C32.3353694,17.6453853 34.1628316,15.8413522 36.4588737,15.8413522 C38.7549159,15.8413522 40.582378,17.6453853 40.582378,19.9414275 C40.582378,22.2374697 38.7549159,24.0649318 36.4588737,24.0649318 M36.4588737,11.7647059 C31.9370764,11.7647059 28.2352941,15.4664882 28.2352941,20.0117145 C28.2352941,24.5335118 31.9370764,28.2352941 36.4588737,28.2352941 C41.0041001,28.2352941 44.7058824,24.5335118 44.7058824,20.0117145 C44.7058824,15.4664882 41.0041001,11.7647059 36.4588737,11.7647059" id="Fill-16"></path>
            </g>
        </g>
    </g>
</svg>