<svg xmlns="http://www.w3.org/2000/svg" width="50" height="50" viewBox="0 0 50 50" xmlns:xlink="http://www.w3.org/1999/xlink"><defs><path id="a" d="M33.326 18.952V.022H.166v18.93h33.16z"/></defs><g fill="none" fill-rule="evenodd"><path opacity=".023" d="M0 0h49.505v50H0z"/><path d="M8.923 18.753c.787 3.419 4.244 5.54 7.723 4.74 3.479-.801 5.662-4.221 4.876-7.639-.787-3.417-4.243-5.54-7.724-4.739-3.478.8-5.662 4.22-4.875 7.638zM3.961 8.213a.859.859 0 0 0 .079 1.229l3.04 2.598a.895.895 0 0 0 1.246-.093.858.858 0 0 0-.079-1.227l-3.04-2.598a.886.886 0 0 0-.777-.187.888.888 0 0 0-.47.279zM.612 16.532a.863.863 0 0 0 .798.941l4.025.332c.48.04.913-.318.958-.797a.863.863 0 0 0-.797-.94l-4.025-.332a.885.885 0 0 0-.958.796zM6.63 21.9l-3.472 2.063a.868.868 0 0 0-.304 1.196.885.885 0 0 0 1.21.295l3.473-2.062a.869.869 0 0 0 .304-1.195.882.882 0 0 0-1.211-.297zm4.327 4.097l-1.594 3.669c-.19.438.017.95.467 1.137a.891.891 0 0 0 1.16-.463l1.594-3.668a.862.862 0 0 0-.467-1.138.896.896 0 0 0-1.16.463zm5.964.792l.895 3.873a.88.88 0 0 0 1.058.646.875.875 0 0 0 .669-1.045l-.895-3.873a.88.88 0 0 0-1.058-.646.875.875 0 0 0-.669 1.045zm5.06-3.685a.858.858 0 0 0 .08 1.227l3.04 2.6a.9.9 0 0 0 1.248-.094.858.858 0 0 0-.08-1.228l-3.04-2.599a.89.89 0 0 0-.778-.186.892.892 0 0 0-.47.28zm2.182-5.023a.863.863 0 0 0 .798.941l4.024.332a.89.89 0 0 0 .958-.797.862.862 0 0 0-.797-.94l-4.025-.332a.887.887 0 0 0-.958.796zm2.552-8.56l-3.472 2.061a.868.868 0 0 0-.304 1.196.885.885 0 0 0 1.21.295l3.472-2.062a.867.867 0 0 0 .304-1.195.883.883 0 0 0-1.21-.296zm-6.812-5.107L18.31 8.082a.864.864 0 0 0 .467 1.139.893.893 0 0 0 1.162-.463L21.53 5.09a.862.862 0 0 0-.466-1.138.89.89 0 0 0-1.162.463zm-8.59-.167l.894 3.873a.88.88 0 0 0 1.059.646.874.874 0 0 0 .668-1.044l-.894-3.874a.88.88 0 0 0-1.059-.646.875.875 0 0 0-.668 1.045z" fill="#F9A300"/><g transform="translate(16.346 9.917)"><mask id="b" fill="#fff"><use xlink:href="#a"/></mask><path fill="#BAC6D1" d="M28.304 8.87c2.77 0 5.022 2.26 5.022 5.042 0 2.779-2.252 5.04-5.022 5.04H6.47c-3.475 0-6.303-2.84-6.303-6.329 0-3.49 2.828-6.328 6.303-6.328.647 0 1.29.1 1.91.297l.404.128.142-.4C10.26 2.552 13.826.021 17.8.021a9.408 9.408 0 0 1 9.378 8.5l.046.448.446-.055c.246-.03.448-.045.634-.045" mask="url(#b)"/></g><path fill="#D6E3F2" d="M2.885 31.055c0 3.376 2.718 6.124 6.058 6.124h26.339c4.193 0 7.603-3.45 7.603-7.69s-3.41-7.689-7.603-7.689c-.78 0-1.556.122-2.304.36l-.487.157-.172-.487c-1.61-4.577-5.912-7.651-10.705-7.651-5.86 0-10.722 4.44-11.313 10.327l-.054.545-.538-.067a6.026 6.026 0 0 0-.766-.055c-3.34 0-6.058 2.748-6.058 6.126z"/></g></svg>