<svg width="50" height="50" viewBox="0 0 50 50" xmlns="http://www.w3.org/2000/svg"><title>Weather-Mostly-Cloudy-night</title><g fill="none" fill-rule="evenodd"><path opacity=".023" d="M0 0h49.505v50H0z"/><path d="M32.16 26.267c.638-.011 1.025.671.655 1.175-1.612 2.193-5.996 6.417-15.517 5.64 0 0-13.68-1.638-14.27-16.558 0 0-.55-8.694 8.112-13.845.632-.375 1.415.185 1.235.88-1.509 5.85-3.793 23.13 19.785 22.708z" fill="#8B9BB5"/><path d="M50 24.441c0 2.79-2.242 5.059-4.998 5.059h-21.73C19.814 29.5 17 26.65 17 23.148c0-3.503 2.814-6.352 6.272-6.352.644 0 1.284.1 1.9.298l.404.129.141-.402c1.328-3.781 4.877-6.321 8.831-6.321 4.834 0 8.847 3.667 9.334 8.53l.045.45.444-.055c.245-.03.446-.044.631-.044 2.756 0 4.998 2.269 4.998 5.06z" fill="#9DA3A7"/><path d="M2.885 31.054c0 3.376 2.718 6.125 6.058 6.125H35.28c4.194 0 7.604-3.45 7.604-7.69s-3.41-7.69-7.604-7.69c-.78 0-1.556.123-2.303.361l-.487.157-.173-.488c-1.609-4.576-5.912-7.65-10.704-7.65-5.86 0-10.723 4.44-11.313 10.326l-.055.546-.537-.068a6.026 6.026 0 0 0-.766-.054c-3.34 0-6.058 2.747-6.058 6.125z" fill="#C2C8CD"/></g></svg>