<svg width="50" height="50" viewBox="0 0 50 50" xmlns="http://www.w3.org/2000/svg"><title>Weather-Mostly-Sunny-night</title><g fill="none" fill-rule="evenodd"><path opacity=".023" d="M0 0h50v50H0z"/><path d="M34.144 29.527c.639-.012 1.025.692.655 1.212-1.612 2.264-5.996 6.624-15.517 5.821 0 0-13.68-1.69-14.27-17.091 0 0-.55-8.975 8.112-14.292.632-.387 1.415.19 1.235.909-1.509 6.038-3.793 23.876 19.785 23.44z" fill="#8B9BB5"/><path d="M6 31.876C6 35.252 8.718 38 12.058 38h26.339C42.59 38 46 34.55 46 30.31s-3.41-7.689-7.603-7.689c-.78 0-1.556.122-2.304.36l-.487.157-.172-.487C33.824 18.074 29.522 15 24.729 15c-5.86 0-10.722 4.44-11.313 10.327l-.054.545-.538-.067a6.026 6.026 0 0 0-.766-.055C8.718 25.75 6 28.498 6 31.876z" fill="#C2C8CD"/></g></svg>