<svg preserveAspectRatio="none" xmlns="http://www.w3.org/2000/svg" viewBox="0 0, 180 10"><path fill="#7ff362" d="M0 0h12v10H0z"/><path fill="#69cc3f" d="M12 0h12v10H12z"/><path fill="#fff" d="M12 0h1v10h-1z"/><path fill="#54a722" d="M24 0h12v10H24z"/><path fill="#fff" d="M24 0h1v10h-1z"/><path fill="#408110" d="M36 0h12v10H36z"/><path fill="#fff" d="M36 0h1v10h-1z"/><path fill="#2a5908" d="M48 0h12v10H48z"/><path fill="#fff" d="M48 0h1v10h-1z"/><path fill="#163402" d="M60 0h12v10H60z"/><path fill="#fff" d="M60 0h1v10h-1z"/><path fill="#f2f255" d="M72 0h12v10H72z"/><path fill="#fff" d="M72 0h1v10h-1z"/><path fill="#e5b82e" d="M84 0h12v10H84z"/><path fill="#fff" d="M84 0h1v10h-1z"/><path fill="#e59445" d="M96 0h12v10H96z"/><path fill="#fff" d="M96 0h1v10h-1z"/><path fill="#d97221" d="M108 0h12v10h-12z"/><path fill="#fff" d="M108 0h1v10h-1z"/><path fill="#e03a1f" d="M120 0h12v10h-12z"/><path fill="#fff" d="M120 0h1v10h-1z"/><path fill="#b42d17" d="M132 0h12v10h-12z"/><path fill="#fff" d="M132 0h1v10h-1z"/><path fill="#811d0d" d="M144 0h12v10h-12z"/><path fill="#fff" d="M144 0h1v10h-1z"/><path fill="#e329e5" d="M156 0h12v10h-12z"/><path fill="#fff" d="M156 0h1v10h-1z"/><path fill="#991999" d="M168 0h12v10h-12z"/><path fill="#fff" d="M168 0h1v10h-1z"/></svg>