<svg width="50" height="50" viewBox="0 0 50 50" xmlns="http://www.w3.org/2000/svg"><title>Weather-Rain-Clearing-night</title><g fill="none" fill-rule="evenodd"><path opacity=".023" d="M0 0h50v50H0z"/><g fill="#C3CED2"><path d="M19.315 39.412s1.307 3.585.963 4.96a2.163 2.163 0 0 1-2.592 1.57 2.1 2.1 0 0 1-1.565-2.554c.343-1.376 3.194-3.976 3.194-3.976M27.722 39.305s1.307 3.585.964 4.96a2.163 2.163 0 0 1-2.592 1.57 2.1 2.1 0 0 1-1.565-2.555c.343-1.376 3.193-3.975 3.193-3.975M36.13 39.194s1.306 3.584.963 4.959a2.163 2.163 0 0 1-2.592 1.57 2.099 2.099 0 0 1-1.564-2.554c.343-1.376 3.192-3.975 3.192-3.975"/></g><path d="M34.144 29.027c.639-.012 1.025.692.655 1.212-1.612 2.264-5.996 6.624-15.517 5.821 0 0-13.68-1.69-14.27-17.091 0 0-.55-8.975 8.112-14.292.632-.387 1.415.19 1.235.909-1.509 6.038-3.793 23.876 19.785 23.44z" fill="#8B9BB5"/><path d="M6 31.376c0 3.376 2.718 6.124 6.058 6.124h26.339C42.59 37.5 46 34.05 46 29.81s-3.41-7.689-7.603-7.689c-.78 0-1.556.122-2.304.36l-.487.157-.172-.487c-1.61-4.577-5.912-7.651-10.705-7.651-5.86 0-10.722 4.44-11.313 10.327l-.054.545-.538-.067a6.026 6.026 0 0 0-.766-.055C8.718 25.25 6 27.998 6 31.376z" fill="#C2C8CD"/></g></svg>