<svg width="50" height="50" viewBox="0 0 50 50" xmlns="http://www.w3.org/2000/svg"><title>Weather-Sleet-night</title><g fill="none" fill-rule="evenodd"><path opacity=".023" d="M0 0h50v50H0z"/><path d="M42.635 33.986a2.482 2.482 0 0 1-4.966 0c0-1.37 1.111-2.48 2.483-2.48a2.482 2.482 0 0 1 2.483 2.48M33.458 33.986a2.482 2.482 0 0 1-4.966 0c0-1.37 1.111-2.48 2.483-2.48a2.482 2.482 0 0 1 2.483 2.48M24.187 33.986a2.482 2.482 0 0 1-4.966 0 2.482 2.482 0 1 1 4.965 0M15.01 33.99a2.482 2.482 0 0 1-4.966 0 2.482 2.482 0 1 1 4.965 0M37.918 40.669a2.482 2.482 0 0 1-4.965 0 2.482 2.482 0 1 1 4.965 0M28.754 40.669a2.482 2.482 0 0 1-4.965 0 2.482 2.482 0 1 1 4.965 0M19.22 40.669a2.482 2.482 0 0 1-4.965 0c0-1.37 1.111-2.481 2.483-2.481a2.482 2.482 0 0 1 2.483 2.48" fill="#C3CED2"/><path d="M50 22.409C50 25.492 47.554 28 44.548 28H20.843C17.07 28 14 24.85 14 20.98c0-3.872 3.07-7.022 6.843-7.022.702 0 1.4.111 2.073.33l.44.143.154-.445C24.959 9.807 28.83 7 33.144 7c5.273 0 9.65 4.053 10.181 9.429l.05.497.484-.061c.267-.034.486-.05.689-.05 3.006 0 5.452 2.509 5.452 5.594z" fill="#9DA3A7"/><path d="M0 21.876C0 25.252 2.718 28 6.058 28h26.339C36.59 28 40 24.55 40 20.31s-3.41-7.689-7.603-7.689c-.78 0-1.556.122-2.304.36l-.487.157-.172-.487C27.824 8.074 23.522 5 18.729 5 12.87 5 8.007 9.44 7.416 15.327l-.054.545-.538-.067a6.026 6.026 0 0 0-.766-.055C2.718 15.75 0 18.498 0 21.876z" fill="#C2C8CD"/></g></svg>