<svg xmlns="http://www.w3.org/2000/svg" width="50" height="50" viewBox="0 0 50 50"><g fill="none" fill-rule="evenodd"><path opacity=".023" d="M0 0h50v50H0z"/><path fill="#4FB4ED" d="M40.926 26.63a1.118 1.118 0 0 0-1.364-.801l-7.28 1.951L27.468 25l4.814-2.78 7.297 1.954a1.119 1.119 0 0 0 1.233-1.65 1.093 1.093 0 0 0-.676-.517l-5.11-1.37 4.964-2.864a1.12 1.12 0 0 0 .397-1.52 1.123 1.123 0 0 0-1.53-.415l-4.949 2.861 1.37-5.113a1.13 1.13 0 0 0-.12-.853 1.107 1.107 0 0 0-.681-.514 1.131 1.131 0 0 0-1.361.792l-1.95 7.272-4.815 2.78v-5.561l5.328-5.326a1.132 1.132 0 0 0-.003-1.578 1.112 1.112 0 0 0-.793-.33c-.299 0-.58.117-.791.329l-3.74 3.74v-5.72c0-.616-.504-1.117-1.123-1.117-.616 0-1.116.501-1.116 1.116v5.721l-3.739-3.74a1.119 1.119 0 0 0-1.59.003 1.133 1.133 0 0 0 .005 1.58l5.324 5.322v5.561l-4.816-2.78-1.95-7.278a1.128 1.128 0 0 0-1.359-.786 1.125 1.125 0 0 0-.803 1.371l1.371 5.11-4.956-2.864a1.121 1.121 0 0 0-1.528.417 1.12 1.12 0 0 0 .415 1.526l4.952 2.857-5.1 1.369a1.098 1.098 0 0 0-.683.51 1.139 1.139 0 0 0-.118.867 1.124 1.124 0 0 0 1.37.786l7.268-1.948 4.82 2.78-4.815 2.78-7.277-1.95a1.126 1.126 0 0 0-.855.121c-.253.15-.439.394-.507.667a1.115 1.115 0 0 0 .787 1.376l5.11 1.37-4.959 2.861c-.532.315-.713 1-.402 1.522.2.352.565.562.972.562.195 0 .387-.05.558-.147L16.56 31.3l-1.369 5.107c-.08.287-.04.59.112.852.147.256.385.44.665.516.096.03.195.043.303.043.496 0 .94-.34 1.083-.83l1.944-7.272 4.814-2.78v5.562l-5.32 5.323a1.12 1.12 0 0 0 1.584 1.582l3.736-3.739v5.72a1.12 1.12 0 0 0 2.238 0v-5.721l3.738 3.738c.212.214.494.33.792.33a1.12 1.12 0 0 0 .794-1.911l-5.324-5.322v-5.56l4.815 2.784 1.947 7.276c.137.483.58.82 1.08.82.106 0 .205-.013.298-.042a1.115 1.115 0 0 0 .782-1.366l-1.37-5.106 4.96 2.862c.17.096.361.146.552.146.404 0 .765-.209.97-.56a1.13 1.13 0 0 0-.407-1.531l-4.952-2.857 5.105-1.369a1.11 1.11 0 0 0 .683-.523c.148-.258.19-.565.112-.841"/></g></svg>