<svg xmlns="http://www.w3.org/2000/svg" width="50" height="50" viewBox="0 0 50 50"><g fill="none" fill-rule="evenodd"><path opacity=".023" d="M0 0h50v50H0z"/><path d="M20.84 45.807a.672.672 0 0 1-.67-.67v-1.342l-1.278.738-.22.023a.673.673 0 0 1-.343-1.249l1.17-.674-1.163-.671a.67.67 0 0 1-.248-.912.67.67 0 0 1 .915-.253l1.166.674v-1.342a.67.67 0 1 1 1.341 0v1.342l1.162-.671a.672.672 0 0 1 .683 1.155l-1.174.678 1.162.67a.677.677 0 0 1 .244.919.673.673 0 0 1-.58.334h-.132l-.199-.087-1.166-.674v1.342c0 .369-.3.67-.67.67m9-.34a.672.672 0 0 1-.67-.67v-1.342l-1.278.738-.22.023a.673.673 0 0 1-.343-1.249l1.17-.674-1.163-.671a.67.67 0 0 1-.248-.912.67.67 0 0 1 .915-.253l1.166.674v-1.342a.67.67 0 1 1 1.341 0v1.342l1.162-.671a.672.672 0 0 1 .683 1.155l-1.174.678 1.162.67a.677.677 0 0 1 .244.919.673.673 0 0 1-.58.334h-.132l-.199-.087-1.166-.674v1.342c0 .369-.3.67-.67.67m9-.26a.672.672 0 0 1-.67-.67v-1.342l-1.278.738-.22.023a.673.673 0 0 1-.343-1.249l1.17-.674-1.163-.671a.67.67 0 0 1-.248-.912.67.67 0 0 1 .915-.253l1.166.674v-1.342a.67.67 0 1 1 1.341 0v1.342l1.162-.671a.672.672 0 0 1 .683 1.155l-1.174.678 1.162.67a.677.677 0 0 1 .244.919.673.673 0 0 1-.58.334h-.132l-.199-.087-1.166-.674v1.342c0 .369-.3.67-.67.67" fill="#38A1E8"/><path d="M9.935 18.646c-.898 3.873 1.518 7.739 5.395 8.639 3.877.897 7.748-1.514 8.645-5.387a7.202 7.202 0 0 0-5.397-8.637c-3.876-.899-7.747 1.511-8.643 5.385zm.225-13.191a.983.983 0 0 0-.526 1.291l1.764 4.148a.987.987 0 0 0 1.818-.771l-1.763-4.148a.982.982 0 0 0-.686-.572.98.98 0 0 0-.607.052zm-7.45 6.83a.982.982 0 0 0 .334 1.353L6.91 15.96a.99.99 0 0 0 1.352-.341.981.981 0 0 0-.335-1.352l-3.865-2.322a.988.988 0 0 0-1.352.34zm3.377 8.44l-4.491.393a.987.987 0 0 0 .172 1.967l4.492-.391a.988.988 0 0 0-.173-1.968zm2.313 6.31L4.997 29.99a.987.987 0 0 0 1.297 1.49l3.403-2.956a.987.987 0 0 0-1.297-1.49zm5.581 3.746l-1.013 4.39a.988.988 0 0 0 1.925.445l1.014-4.39a.989.989 0 0 0-1.926-.445zm6.882-1.264a.983.983 0 0 0-.526 1.29l1.763 4.15a.992.992 0 0 0 1.295.519.983.983 0 0 0 .524-1.292l-1.762-4.147a.986.986 0 0 0-1.294-.52zm4.659-4.046a.982.982 0 0 0 .334 1.353l3.865 2.322a.99.99 0 0 0 1.352-.341.98.98 0 0 0-.335-1.351l-3.865-2.322a.99.99 0 0 0-1.352.34zm6.772-7.47l-4.491.391a.987.987 0 0 0 .172 1.967l4.492-.392a.986.986 0 0 0 .893-1.068.986.986 0 0 0-1.066-.898zm-4.302-8.563l-3.403 2.953a.99.99 0 0 0 1.297 1.492l3.402-2.955a.988.988 0 0 0-1.296-1.49zm-8.517-4.404l-1.014 4.39a.989.989 0 0 0 1.925.445l1.014-4.39a.989.989 0 0 0-1.925-.445z" fill="#F9A300"/><path fill="#D6E3F2" d="M9 30.876C9 34.252 11.718 37 15.058 37h26.339C45.59 37 49 33.55 49 29.31s-3.41-7.689-7.603-7.689c-.78 0-1.556.122-2.304.36l-.487.157-.172-.487C36.824 17.074 32.522 14 27.729 14c-5.86 0-10.722 4.44-11.313 10.327l-.054.545-.538-.067a6.026 6.026 0 0 0-.766-.055C11.718 24.75 9 27.498 9 30.876z"/></g></svg>