<svg width="50" height="50" viewBox="0 0 50 50" xmlns="http://www.w3.org/2000/svg"><title>Weather-Snowfalls-Clearing-night</title><g fill="none" fill-rule="evenodd"><path opacity=".023" d="M0 0h50v50H0z"/><g fill="#C3CED2"><path d="M20.84 45.807a.672.672 0 0 1-.67-.67v-1.342l-1.278.738-.22.023a.673.673 0 0 1-.343-1.25l1.17-.673-1.163-.671a.67.67 0 0 1-.248-.912.67.67 0 0 1 .915-.253l1.166.674v-1.342a.67.67 0 1 1 1.341 0v1.342l1.162-.671a.672.672 0 0 1 .683 1.155l-1.174.678 1.162.67a.677.677 0 0 1 .244.919.673.673 0 0 1-.58.334h-.132l-.199-.087-1.166-.674v1.342c0 .369-.3.67-.67.67M29.84 45.467a.672.672 0 0 1-.67-.67v-1.342l-1.278.738-.22.023a.673.673 0 0 1-.343-1.25l1.17-.673-1.163-.671a.67.67 0 0 1-.248-.912.67.67 0 0 1 .915-.253l1.166.674v-1.342a.67.67 0 1 1 1.341 0v1.342l1.162-.671a.672.672 0 0 1 .683 1.155l-1.174.678 1.162.67a.677.677 0 0 1 .244.919.673.673 0 0 1-.58.334h-.132l-.199-.087-1.166-.674v1.342c0 .369-.3.67-.67.67M38.84 45.207a.672.672 0 0 1-.67-.67v-1.342l-1.278.738-.22.023a.673.673 0 0 1-.343-1.25l1.17-.673-1.163-.671a.67.67 0 0 1-.248-.912.67.67 0 0 1 .915-.253l1.166.674v-1.342a.67.67 0 1 1 1.341 0v1.342l1.162-.671a.672.672 0 0 1 .683 1.155l-1.174.678 1.162.67a.677.677 0 0 1 .244.919.673.673 0 0 1-.58.334h-.132l-.199-.087-1.166-.674v1.342c0 .369-.3.67-.67.67"/></g><path d="M37.144 29.027c.639-.012 1.025.692.655 1.212-1.612 2.264-5.996 6.624-15.517 5.821 0 0-13.68-1.69-14.27-17.091 0 0-.55-8.975 8.112-14.292.632-.387 1.415.19 1.235.909-1.509 6.038-3.793 23.876 19.785 23.44z" fill="#8B9BB5"/><path d="M9 30.876C9 34.252 11.718 37 15.058 37h26.339C45.59 37 49 33.55 49 29.31s-3.41-7.689-7.603-7.689c-.78 0-1.556.122-2.304.36l-.487.157-.172-.487C36.824 17.074 32.522 14 27.729 14c-5.86 0-10.722 4.44-11.313 10.327l-.054.545-.538-.067a6.026 6.026 0 0 0-.766-.055C11.718 24.75 9 27.498 9 30.876z" fill="#C2C8CD"/></g></svg>