<svg width="50" height="50" viewBox="0 0 50 50" xmlns="http://www.w3.org/2000/svg"><title>Weather-Snow-Showers-night</title><g fill="none" fill-rule="evenodd"><path opacity=".023" d="M0 0h50v50H0z"/><path d="M13.294 30.754s1.364 3.642 1.023 5.033c-.28 1.15-1.463 1.855-2.639 1.572-1.177-.285-1.899-1.45-1.617-2.6.34-1.392 3.233-4.005 3.233-4.005M21.724 30.584s1.364 3.643 1.023 5.034c-.28 1.15-1.463 1.855-2.639 1.571-1.177-.284-1.899-1.449-1.617-2.6.34-1.391 3.233-4.005 3.233-4.005M30.484 30.409s1.364 3.642 1.023 5.033c-.281 1.15-1.464 1.855-2.64 1.572-1.176-.285-1.898-1.45-1.616-2.6.34-1.392 3.233-4.005 3.233-4.005M38.736 30s1.364 3.642 1.023 5.033c-.281 1.15-1.464 1.855-2.64 1.572-1.177-.284-1.898-1.45-1.616-2.6.34-1.392 3.233-4.005 3.233-4.005" fill="#C3CED2"/><path d="M50 22.409C50 25.492 47.554 28 44.548 28H20.843C17.07 28 14 24.85 14 20.98c0-3.872 3.07-7.022 6.843-7.022.702 0 1.4.111 2.073.33l.44.143.154-.445C24.959 9.807 28.83 7 33.144 7c5.273 0 9.65 4.053 10.181 9.429l.05.497.484-.061c.267-.034.486-.05.689-.05 3.006 0 5.452 2.509 5.452 5.594z" fill="#9DA3A7"/><path d="M0 21.876C0 25.252 2.718 28 6.058 28h26.339C36.59 28 40 24.55 40 20.31s-3.41-7.689-7.603-7.689c-.78 0-1.556.122-2.304.36l-.487.157-.172-.487C27.824 8.074 23.522 5 18.729 5 12.87 5 8.007 9.44 7.416 15.327l-.054.545-.538-.067a6.026 6.026 0 0 0-.766-.055C2.718 15.75 0 18.498 0 21.876z" fill="#C2C8CD"/><g fill="#C3CED2"><path d="M16.84 45.949a.672.672 0 0 1-.67-.67v-1.342l-1.278.738-.22.023a.673.673 0 0 1-.343-1.249l1.17-.674-1.163-.671a.67.67 0 0 1-.248-.912.67.67 0 0 1 .915-.253l1.166.674v-1.342a.67.67 0 1 1 1.341 0v1.342l1.162-.671a.672.672 0 0 1 .683 1.155l-1.174.678 1.162.67a.677.677 0 0 1 .244.919.673.673 0 0 1-.58.334h-.132l-.199-.087-1.166-.674v1.342c0 .369-.3.67-.67.67M25.84 45.609a.672.672 0 0 1-.67-.67v-1.342l-1.278.738-.22.023a.673.673 0 0 1-.343-1.249l1.17-.674-1.163-.671a.67.67 0 0 1-.248-.912.67.67 0 0 1 .915-.253l1.166.674v-1.342a.67.67 0 1 1 1.341 0v1.342l1.162-.671a.672.672 0 0 1 .683 1.155l-1.174.678 1.162.67a.677.677 0 0 1 .244.919.673.673 0 0 1-.58.334h-.132l-.199-.087-1.166-.674v1.342c0 .369-.3.67-.67.67M34.84 45.349a.672.672 0 0 1-.67-.67v-1.342l-1.278.738-.22.023a.673.673 0 0 1-.343-1.249l1.17-.674-1.163-.671a.67.67 0 0 1-.248-.912.67.67 0 0 1 .915-.253l1.166.674v-1.342a.67.67 0 1 1 1.341 0v1.342l1.162-.671a.672.672 0 0 1 .683 1.155l-1.174.678 1.162.67a.677.677 0 0 1 .244.919.673.673 0 0 1-.58.334h-.132l-.199-.087-1.166-.674v1.342c0 .369-.3.67-.67.67"/></g></g></svg>