<svg width="50" height="50" viewBox="0 0 50 50" xmlns="http://www.w3.org/2000/svg"><title>Weather-Sunny-night</title><g fill="none" fill-rule="evenodd"><path opacity=".023" d="M0 0h50v50H0z"/><path d="M41.41 34.977c.702-.013 1.127.757.72 1.326-1.773 2.476-6.596 7.245-17.07 6.367 0 0-15.047-1.849-15.697-18.694 0 0-.605-9.815 8.925-15.631.694-.423 1.555.208 1.358.994-1.66 6.604-4.173 26.114 21.763 25.638z" fill="#8B9BB5"/><path d="M30.533 16.562c.837 0 1.191 2.645 1.61 3.037.42.392 3.114-.253 3.404.585.29.837-2.144 1.953-2.408 2.461-.265.508 1.231 2.896.492 3.399-.739.502-2.523-1.516-3.098-1.516-.576 0-2.391 2.072-3.099 1.516-.708-.557.756-2.89.492-3.399-.264-.508-2.701-1.634-2.408-2.46.294-.83 2.985-.194 3.404-.586.419-.392.773-3.037 1.61-3.037M35.57 8.978c.554 0 .787 1.746 1.064 2.005.276.259 2.054-.168 2.245.385.191.553-1.413 1.29-1.588 1.625-.175.335.812 1.91.325 2.242-.488.332-1.665-1-2.045-1-.38 0-1.578 1.368-2.046 1-.466-.367.5-1.907.326-2.242-.175-.336-1.783-1.079-1.589-1.625.194-.545 1.969-.126 2.246-.385.276-.259.51-2.005 1.063-2.005" fill="#9B9B9B"/></g></svg>