<svg xmlns="http://www.w3.org/2000/svg" width="50" height="50" viewBox="0 0 50 50"><g fill="none" fill-rule="evenodd"><path opacity=".023" d="M0 0h50v50H0z"/><path d="M17.764 25.34a7.815 7.815 0 0 0 15.629.012 7.814 7.814 0 0 0-7.81-7.819 7.812 7.812 0 0 0-7.819 7.806zm-2.98-14.007a1.068 1.068 0 0 0-.24 1.495l2.875 3.955a1.07 1.07 0 0 0 1.493.234c.482-.35.585-1.016.24-1.493l-2.875-3.956a1.065 1.065 0 0 0-.864-.438c-.22 0-.44.065-.629.203zm-6.206 9.043a1.066 1.066 0 0 0 .684 1.35l4.65 1.511a1.074 1.074 0 0 0 1.346-.69 1.065 1.065 0 0 0-.683-1.348l-4.652-1.512a1.072 1.072 0 0 0-1.345.69zm5.628 8.103l-4.65 1.512c-.556.18-.867.785-.684 1.348.184.567.785.872 1.346.69l4.65-1.511a1.072 1.072 0 0 0-.662-2.04zm3.983 6.107l-2.875 3.957a1.072 1.072 0 0 0 1.733 1.258l2.875-3.956a1.072 1.072 0 0 0-1.733-1.26zm6.81 2.6v4.89a1.072 1.072 0 0 0 2.144 0v-4.89c0-.583-.48-1.067-1.072-1.067-.595 0-1.071.478-1.071 1.067zm6.964-3.017a1.068 1.068 0 0 0-.24 1.493l2.874 3.957c.343.472 1.016.58 1.494.234a1.068 1.068 0 0 0 .24-1.495l-2.874-3.955a1.069 1.069 0 0 0-1.494-.234zm3.935-5.416a1.066 1.066 0 0 0 .684 1.348l4.65 1.512a1.072 1.072 0 0 0 .662-2.038l-4.65-1.512a1.073 1.073 0 0 0-1.345.69zm5.334-9.555l-4.65 1.51a1.072 1.072 0 0 0 .662 2.039l4.65-1.512a1.07 1.07 0 0 0 .683-1.348 1.07 1.07 0 0 0-1.345-.69zm-6.635-8.006l-2.875 3.955a1.075 1.075 0 0 0 .24 1.494c.482.35 1.148.242 1.495-.234l2.874-3.956a1.073 1.073 0 0 0-.87-1.7c-.332 0-.655.154-.864.44zM24.523 8.614v4.89c0 .584.48 1.068 1.072 1.068.596 0 1.071-.478 1.071-1.067v-4.89c0-.584-.48-1.067-1.071-1.067-.595 0-1.072.477-1.072 1.066z" fill="#F9A300"/></g></svg>