<svg xmlns="http://www.w3.org/2000/svg" width="50" height="50" viewBox="0 0 50 50"><g fill="none" fill-rule="evenodd"><path opacity=".023" d="M0 0h50v50H0z"/><path fill="#F8A31B" d="M32.893 36a7.814 7.814 0 0 0-7.81-7.81 7.812 7.812 0 0 0-7.818 7.806V36h15.628zM10.719 25.75a1.068 1.068 0 0 0 .207 1.5l3.906 2.943a1.07 1.07 0 0 0 1.495-.213 1.068 1.068 0 0 0-.206-1.5l-3.906-2.941a1.062 1.062 0 0 0-.954-.166c-.21.064-.401.19-.542.378m27.591-.212l-4.005 2.805a1.07 1.07 0 0 0-.259 1.489 1.067 1.067 0 0 0 1.488.267l4.005-2.806a1.07 1.07 0 0 0 .26-1.488 1.067 1.067 0 0 0-1.489-.267m-8.685-5.716l-1.593 4.622a1.074 1.074 0 0 0 2.028.698l1.59-4.623a1.073 1.073 0 0 0-1.328-1.37 1.062 1.062 0 0 0-.697.673m-10.387.48l1.43 4.678c.17.557.77.88 1.337.707.57-.175.884-.771.712-1.334l-1.43-4.677a1.07 1.07 0 0 0-1.336-.706c-.57.174-.885.77-.713 1.333M42.96 36a1.052 1.052 0 0 0-.982-.73l-4.89-.086a1.026 1.026 0 0 0-.325.045c-.356.11-.626.405-.717.77h6.914zm-28.571 0a1.053 1.053 0 0 0-.986-.753l-4.89-.086a1.015 1.015 0 0 0-.327.047c-.362.11-.635.415-.72.792h6.923z"/><path fill="#A1ABB5" d="M7.071 38.672A1.078 1.078 0 0 1 6 37.586c0-.6.479-1.086 1.071-1.086h35.256c.592 0 1.071.486 1.071 1.086 0 .6-.479 1.086-1.071 1.086H7.071zm21.274-27.104l-3.03-2.962V15h-.963V8.606l-3.03 2.962a.49.49 0 0 1-.681 0 .464.464 0 0 1 0-.666l3.852-3.765a.488.488 0 0 1 .68 0l3.853 3.765a.464.464 0 0 1 0 .666.49.49 0 0 1-.681 0"/></g></svg>