<svg xmlns="http://www.w3.org/2000/svg" width="50" height="50" viewBox="0 0 50 50"><g fill="none" fill-rule="evenodd"><path opacity=".023" d="M0 0h50v50H0z"/><path fill="#38A1E8" d="M38.732 29.622s1.372 3.736 1.025 5.166a2.21 2.21 0 0 1-2.672 1.618 2.212 2.212 0 0 1-1.632-2.667c.347-1.429 3.279-4.117 3.279-4.117M14.452 30.1s1.372 3.737 1.025 5.166a2.21 2.21 0 0 1-2.672 1.618 2.212 2.212 0 0 1-1.632-2.666c.347-1.429 3.279-4.118 3.279-4.118"/><path fill="#F9A300" d="M30.394 32.501H23.38l.37-1.03c.67-1.863 1.277-3.551 1.469-4.08.319-.882.332-1.568.035-1.982a1.01 1.01 0 0 0-.717-.409h-2.124c-1.33 0-2.143 1.329-2.434 2.466l-.31 1.21c-.463 1.794-1.097 4.253-1.538 6.17-.311 1.356-.004 1.924.143 2.106.136.168.325.249.58.249h7.299l-2.556 7.298c-.118.335-.1.52-.078.58.096.013.444-.067.758-.518 1.486-2.136 5.232-7.662 6.867-10.178.396-.61.521-1.111.353-1.414-.153-.275-.606-.468-1.103-.468"/><path fill="#D6E3F2" d="M5 21.876C5 25.252 7.718 28 11.058 28h26.339C41.59 28 45 24.55 45 20.31s-3.41-7.689-7.603-7.689c-.78 0-1.556.122-2.304.36l-.487.157-.172-.487C32.824 8.074 28.522 5 23.729 5c-5.86 0-10.722 4.44-11.313 10.327l-.054.545-.538-.067a6.026 6.026 0 0 0-.766-.055C7.718 15.75 5 18.498 5 21.876z"/></g></svg>