<svg width="50" height="50" viewBox="0 0 50 50" xmlns="http://www.w3.org/2000/svg"><title>Weather-Thundersnow-night</title><g fill="none" fill-rule="evenodd"><path opacity=".023" d="M0 0h50v50H0z"/><path d="M8.84 37.207a.672.672 0 0 1-.67-.67v-1.342l-1.278.738-.22.023a.673.673 0 0 1-.343-1.25l1.17-.673-1.163-.671a.67.67 0 0 1-.248-.912.67.67 0 0 1 .915-.253l1.166.674v-1.342a.67.67 0 1 1 1.341 0v1.342l1.162-.671a.672.672 0 0 1 .683 1.155l-1.174.678 1.162.67a.677.677 0 0 1 .244.919.673.673 0 0 1-.58.334h-.132l-.199-.087-1.166-.674v1.342c0 .369-.3.67-.67.67M31.84 37.207a.672.672 0 0 1-.67-.67v-1.342l-1.278.738-.22.023a.673.673 0 0 1-.343-1.25l1.17-.673-1.163-.671a.67.67 0 0 1-.248-.912.67.67 0 0 1 .915-.253l1.166.674v-1.342a.67.67 0 1 1 1.341 0v1.342l1.162-.671a.672.672 0 0 1 .683 1.155l-1.174.678 1.162.67a.677.677 0 0 1 .244.919.673.673 0 0 1-.58.334h-.132l-.199-.087-1.166-.674v1.342c0 .369-.3.67-.67.67M40.84 37.207a.672.672 0 0 1-.67-.67v-1.342l-1.278.738-.22.023a.673.673 0 0 1-.343-1.25l1.17-.673-1.163-.671a.67.67 0 0 1-.248-.912.67.67 0 0 1 .915-.253l1.166.674v-1.342a.67.67 0 1 1 1.341 0v1.342l1.162-.671a.672.672 0 0 1 .683 1.155l-1.174.678 1.162.67a.677.677 0 0 1 .244.919.673.673 0 0 1-.58.334h-.132l-.199-.087-1.166-.674v1.342c0 .369-.3.67-.67.67M14.84 45.207a.672.672 0 0 1-.67-.67v-1.342l-1.278.738-.22.023a.673.673 0 0 1-.343-1.25l1.17-.673-1.163-.671a.67.67 0 0 1-.248-.912.67.67 0 0 1 .915-.253l1.166.674v-1.342a.67.67 0 1 1 1.341 0v1.342l1.162-.671a.672.672 0 0 1 .683 1.155l-1.174.678 1.162.67a.677.677 0 0 1 .244.919.673.673 0 0 1-.58.334h-.132l-.199-.087-1.166-.674v1.342c0 .369-.3.67-.67.67M29.84 45.207a.672.672 0 0 1-.67-.67v-1.342l-1.278.738-.22.023a.673.673 0 0 1-.343-1.25l1.17-.673-1.163-.671a.67.67 0 0 1-.248-.912.67.67 0 0 1 .915-.253l1.166.674v-1.342a.67.67 0 1 1 1.341 0v1.342l1.162-.671a.672.672 0 0 1 .683 1.155l-1.174.678 1.162.67a.677.677 0 0 1 .244.919.673.673 0 0 1-.58.334h-.132l-.199-.087-1.166-.674v1.342c0 .369-.3.67-.67.67M38.84 45.207a.672.672 0 0 1-.67-.67v-1.342l-1.278.738-.22.023a.673.673 0 0 1-.343-1.25l1.17-.673-1.163-.671a.67.67 0 0 1-.248-.912.67.67 0 0 1 .915-.253l1.166.674v-1.342a.67.67 0 1 1 1.341 0v1.342l1.162-.671a.672.672 0 0 1 .683 1.155l-1.174.678 1.162.67a.677.677 0 0 1 .244.919.673.673 0 0 1-.58.334h-.132l-.199-.087-1.166-.674v1.342c0 .369-.3.67-.67.67" fill="#C3CED2"/><path d="M18.38 32.501l.37-1.03c.67-1.863 1.277-3.551 1.469-4.08.319-.882.332-1.568.035-1.982a1.01 1.01 0 0 0-.717-.409h-2.124c-1.33 0-2.143 1.329-2.434 2.466l-.31 1.21c-.463 1.794-1.097 4.253-1.537 6.17-.312 1.356-.005 1.924.142 2.106.136.168.326.249.58.249h7.299l-2.555 7.298c-.119.335-.1.52-.08.58.098.013.445-.067.76-.518 1.485-2.136 5.231-7.662 6.866-10.178.396-.61.522-1.111.354-1.414-.154-.275-.607-.468-1.104-.468h-7.013z" fill="#8B9BB4"/><path d="M13 22.408C13 25.491 15.446 28 18.452 28h23.705C45.931 28 49 24.85 49 20.98c0-3.872-3.07-7.022-6.843-7.022-.702 0-1.4.112-2.073.33l-.439.143-.155-.446C38.042 9.807 34.17 7 29.856 7c-5.273 0-9.65 4.054-10.181 9.429l-.05.498-.483-.062a5.347 5.347 0 0 0-.69-.05c-3.006 0-5.452 2.509-5.452 5.593z" fill="#C2C8CD"/><path d="M40 21.876C40 25.253 37.282 28 33.942 28H7.602C3.413 28 0 24.55 0 20.31s3.411-7.689 7.603-7.689c.78 0 1.556.122 2.303.361l.489.156.171-.487C12.176 8.075 16.478 5 21.271 5c5.86 0 10.723 4.439 11.313 10.327l.054.545.539-.067a6.14 6.14 0 0 1 .765-.055c3.34 0 6.058 2.747 6.058 6.126z" fill="#9DA3A7"/></g></svg>