<svg xmlns="http://www.w3.org/2000/svg" width="50" height="50" viewBox="0 0 50 50"><g fill="none" fill-rule="evenodd"><path opacity=".023" d="M0 0h50v50H0z"/><g fill="#BAC6D1"><path d="M24.692 19.695H12.425a1.131 1.131 0 0 1-1.134-1.128c0-.625.508-1.13 1.134-1.13h12.267c1.57 0 3.267-1.154 3.267-3.012 0-1.823-1.401-2.779-2.788-2.779a2.68 2.68 0 0 0-2.607 2.079 1.12 1.12 0 0 1-1.354.858 1.128 1.128 0 0 1-.86-1.348c.495-2.227 2.522-3.847 4.821-3.847 2.883 0 5.056 2.167 5.056 5.037 0 2.906-2.484 5.27-5.535 5.27"/><path d="M36.567 23.905H6.635a1.132 1.132 0 0 1-1.136-1.128 1.13 1.13 0 0 1 1.136-1.128h29.932c1.57 0 3.266-1.155 3.266-3.018 0-1.822-1.404-2.774-2.79-2.774a2.677 2.677 0 0 0-2.604 2.08 1.126 1.126 0 0 1-1.354.856 1.127 1.127 0 0 1-.86-1.346c.495-2.229 2.521-3.848 4.819-3.848 2.881 0 5.058 2.164 5.058 5.032 0 2.91-2.484 5.274-5.535 5.274m-8.748 16.892c-2.295 0-4.324-1.616-4.82-3.845-.136-.608.249-1.21.861-1.346a1.127 1.127 0 0 1 1.353.857 2.683 2.683 0 0 0 2.606 2.078c1.387 0 2.788-.954 2.788-2.777 0-1.86-1.696-3.014-3.267-3.014H15.073a1.13 1.13 0 0 1-1.133-1.128c0-.622.508-1.128 1.133-1.128H27.34c3.052 0 5.536 2.364 5.536 5.27 0 2.87-2.173 5.033-5.057 5.033"/><path d="M39.694 36.589c-2.3 0-4.326-1.618-4.821-3.847-.136-.61.25-1.213.862-1.346.64-.13 1.217.253 1.352.856a2.68 2.68 0 0 0 2.607 2.08c1.386 0 2.787-.955 2.787-2.778 0-1.86-1.695-3.014-3.266-3.014H9.283a1.13 1.13 0 1 1 0-2.256h29.932c3.051 0 5.535 2.364 5.535 5.27 0 2.87-2.173 5.035-5.056 5.035"/></g></g></svg>